<?xml version="1.0" encoding="UTF-8"?>
<!--Generator: Apple Native CoreSVG 149-->
<!DOCTYPE svg
PUBLIC "-//W3C//DTD SVG 1.1//EN"
       "http://www.w3.org/Graphics/SVG/1.1/DTD/svg11.dtd">
<svg version="1.1" xmlns="http://www.w3.org/2000/svg" xmlns:xlink="http://www.w3.org/1999/xlink" width="3300" height="2200">
 <!--glyph: "uni100904.medium", point size: 100.000000, font version: "Version 16.0d12e3", template writer version: "8"-->
 <g id="Notes">
  <rect height="2200" id="artboard" style="fill:white;opacity:1" width="3300" x="0" y="0"/>
  <line id="" style="fill:none;stroke:black;opacity:1;stroke-width:0.5;" x1="263" x2="3036" y1="292" y2="292"/>
  <text style="stroke:none;fill:black;font-family:-apple-system,&quot;SF Pro Display&quot;,&quot;SF Pro Text&quot;,Helvetica,sans-serif;font-weight:bold;" transform="matrix(1 0 0 1 263 322)">Weight/Scale Variations</text>
  <text style="stroke:none;fill:black;font-family:-apple-system,&quot;SF Pro Display&quot;,&quot;SF Pro Text&quot;,Helvetica,sans-serif;text-anchor:middle;" transform="matrix(1 0 0 1 559.711 322)">Ultralight</text>
  <text style="stroke:none;fill:black;font-family:-apple-system,&quot;SF Pro Display&quot;,&quot;SF Pro Text&quot;,Helvetica,sans-serif;text-anchor:middle;" transform="matrix(1 0 0 1 856.422 322)">Thin</text>
  <text style="stroke:none;fill:black;font-family:-apple-system,&quot;SF Pro Display&quot;,&quot;SF Pro Text&quot;,Helvetica,sans-serif;text-anchor:middle;" transform="matrix(1 0 0 1 1153.13 322)">Light</text>
  <text style="stroke:none;fill:black;font-family:-apple-system,&quot;SF Pro Display&quot;,&quot;SF Pro Text&quot;,Helvetica,sans-serif;text-anchor:middle;" transform="matrix(1 0 0 1 1449.84 322)">Regular</text>
  <text style="stroke:none;fill:black;font-family:-apple-system,&quot;SF Pro Display&quot;,&quot;SF Pro Text&quot;,Helvetica,sans-serif;text-anchor:middle;" transform="matrix(1 0 0 1 1746.56 322)">Medium</text>
  <text style="stroke:none;fill:black;font-family:-apple-system,&quot;SF Pro Display&quot;,&quot;SF Pro Text&quot;,Helvetica,sans-serif;text-anchor:middle;" transform="matrix(1 0 0 1 2043.27 322)">Semibold</text>
  <text style="stroke:none;fill:black;font-family:-apple-system,&quot;SF Pro Display&quot;,&quot;SF Pro Text&quot;,Helvetica,sans-serif;text-anchor:middle;" transform="matrix(1 0 0 1 2339.98 322)">Bold</text>
  <text style="stroke:none;fill:black;font-family:-apple-system,&quot;SF Pro Display&quot;,&quot;SF Pro Text&quot;,Helvetica,sans-serif;text-anchor:middle;" transform="matrix(1 0 0 1 2636.69 322)">Heavy</text>
  <text style="stroke:none;fill:black;font-family:-apple-system,&quot;SF Pro Display&quot;,&quot;SF Pro Text&quot;,Helvetica,sans-serif;text-anchor:middle;" transform="matrix(1 0 0 1 2933.4 322)">Black</text>
  <line id="" style="fill:none;stroke:black;opacity:1;stroke-width:0.5;" x1="263" x2="3036" y1="1903" y2="1903"/>
  <g id="" transform="matrix(1 0 0 1 263 1933)">
   <path d="M9.24805 0.830078C13.5547 0.830078 17.1387-2.74414 17.1387-7.05078C17.1387-11.3574 13.5449-14.9316 9.23828-14.9316C4.94141-14.9316 1.36719-11.3574 1.36719-7.05078C1.36719-2.74414 4.95117 0.830078 9.24805 0.830078ZM9.24805-0.654297C5.70312-0.654297 2.87109-3.49609 2.87109-7.05078C2.87109-10.6055 5.69336-13.4473 9.23828-13.4473C12.793-13.4473 15.6348-10.6055 15.6445-7.05078C15.6543-3.49609 12.8027-0.654297 9.24805-0.654297ZM9.22852-3.62305C9.69727-3.62305 9.9707-3.93555 9.9707-4.45312L9.9707-6.31836L12.002-6.31836C12.5-6.31836 12.832-6.57227 12.832-7.04102C12.832-7.51953 12.5195-7.7832 12.002-7.7832L9.9707-7.7832L9.9707-9.81445C9.9707-10.332 9.69727-10.6543 9.22852-10.6543C8.75977-10.6543 8.50586-10.3125 8.50586-9.81445L8.50586-7.7832L6.49414-7.7832C5.97656-7.7832 5.64453-7.51953 5.64453-7.04102C5.64453-6.57227 5.99609-6.31836 6.49414-6.31836L8.50586-6.31836L8.50586-4.45312C8.50586-3.95508 8.75977-3.62305 9.22852-3.62305Z"/>
  </g>
  <g id="" transform="matrix(1 0 0 1 281.506 1933)">
   <path d="M11.709 2.91016C17.1582 2.91016 21.6699-1.61133 21.6699-7.05078C21.6699-12.5 17.1484-17.0117 11.6992-17.0117C6.25977-17.0117 1.74805-12.5 1.74805-7.05078C1.74805-1.61133 6.26953 2.91016 11.709 2.91016ZM11.709 1.25C7.09961 1.25 3.41797-2.44141 3.41797-7.05078C3.41797-11.6602 7.08984-15.3516 11.6992-15.3516C16.3086-15.3516 20-11.6602 20.0098-7.05078C20.0195-2.44141 16.3184 1.25 11.709 1.25ZM11.6797-2.66602C12.207-2.66602 12.5098-3.01758 12.5098-3.59375L12.5098-6.23047L15.3223-6.23047C15.8691-6.23047 16.25-6.51367 16.25-7.03125C16.25-7.55859 15.8887-7.86133 15.3223-7.86133L12.5098-7.86133L12.5098-10.6836C12.5098-11.25 12.207-11.6113 11.6797-11.6113C11.1621-11.6113 10.8789-11.2305 10.8789-10.6836L10.8789-7.86133L8.07617-7.86133C7.50977-7.86133 7.13867-7.55859 7.13867-7.03125C7.13867-6.51367 7.5293-6.23047 8.07617-6.23047L10.8789-6.23047L10.8789-3.59375C10.8789-3.03711 11.1621-2.66602 11.6797-2.66602Z"/>
  </g>
  <g id="" transform="matrix(1 0 0 1 304.924 1933)">
   <path d="M14.9707 5.66406C21.9336 5.66406 27.6953-0.0976562 27.6953-7.05078C27.6953-14.0137 21.9238-19.7754 14.9609-19.7754C8.00781-19.7754 2.25586-14.0137 2.25586-7.05078C2.25586-0.0976562 8.01758 5.66406 14.9707 5.66406ZM14.9707 3.84766C8.93555 3.84766 4.08203-1.01562 4.08203-7.05078C4.08203-13.0957 8.92578-17.9492 14.9609-17.9492C21.0059-17.9492 25.8594-13.0957 25.8691-7.05078C25.8789-1.01562 21.0156 3.84766 14.9707 3.84766ZM14.9414-1.38672C15.5176-1.38672 15.8594-1.77734 15.8594-2.38281L15.8594-6.13281L19.7754-6.13281C20.3711-6.13281 20.7812-6.46484 20.7812-7.02148C20.7812-7.59766 20.3906-7.93945 19.7754-7.93945L15.8594-7.93945L15.8594-11.8652C15.8594-12.4805 15.5176-12.8711 14.9414-12.8711C14.375-12.8711 14.0527-12.4609 14.0527-11.8652L14.0527-7.93945L10.1465-7.93945C9.53125-7.93945 9.13086-7.59766 9.13086-7.02148C9.13086-6.46484 9.55078-6.13281 10.1465-6.13281L14.0527-6.13281L14.0527-2.38281C14.0527-1.79688 14.375-1.38672 14.9414-1.38672Z"/>
  </g>
  <text style="stroke:none;fill:black;font-family:-apple-system,&quot;SF Pro Display&quot;,&quot;SF Pro Text&quot;,Helvetica,sans-serif;font-weight:bold;" transform="matrix(1 0 0 1 263 1953)">Design Variations</text>
  <text style="stroke:none;fill:black;font-family:-apple-system,&quot;SF Pro Display&quot;,&quot;SF Pro Text&quot;,Helvetica,sans-serif;" transform="matrix(1 0 0 1 263 1971)">Symbols are supported in up to nine weights and three scales.</text>
  <text style="stroke:none;fill:black;font-family:-apple-system,&quot;SF Pro Display&quot;,&quot;SF Pro Text&quot;,Helvetica,sans-serif;" transform="matrix(1 0 0 1 263 1989)">For optimal layout with text and other symbols, vertically align</text>
  <text style="stroke:none;fill:black;font-family:-apple-system,&quot;SF Pro Display&quot;,&quot;SF Pro Text&quot;,Helvetica,sans-serif;" transform="matrix(1 0 0 1 263 2007)">symbols with the adjacent text.</text>
  <line id="" style="fill:none;stroke:#00AEEF;stroke-width:0.5;opacity:1.0;" x1="776" x2="776" y1="1919" y2="1933"/>
  <g id="" transform="matrix(1 0 0 1 776 1933)">
   <path d="M3.31055 0.126953C3.82812 0.126953 4.08203-0.0683594 4.26758-0.605469L5.52734-4.0625L11.2891-4.0625L12.5488-0.605469C12.7344-0.0683594 12.9883 0.126953 13.4961 0.126953C14.0137 0.126953 14.3457-0.185547 14.3457-0.673828C14.3457-0.839844 14.3164-0.986328 14.2383-1.20117L9.6582-13.3887C9.43359-13.9941 9.0332-14.2871 8.4082-14.2871C7.80273-14.2871 7.39258-13.9941 7.17773-13.3984L2.59766-1.19141C2.51953-0.976562 2.49023-0.830078 2.49023-0.664062C2.49023-0.175781 2.80273 0.126953 3.31055 0.126953ZM6.00586-5.53711L8.37891-12.1094L8.42773-12.1094L10.8008-5.53711Z"/>
  </g>
  <line id="" style="fill:none;stroke:#00AEEF;stroke-width:0.5;opacity:1.0;" x1="792.836" x2="792.836" y1="1919" y2="1933"/>
  <text style="stroke:none;fill:black;font-family:-apple-system,&quot;SF Pro Display&quot;,&quot;SF Pro Text&quot;,Helvetica,sans-serif;font-weight:bold;" transform="matrix(1 0 0 1 776 1953)">Margins</text>
  <text style="stroke:none;fill:black;font-family:-apple-system,&quot;SF Pro Display&quot;,&quot;SF Pro Text&quot;,Helvetica,sans-serif;" transform="matrix(1 0 0 1 776 1971)">Leading and trailing margins on the left and right side of each symbol</text>
  <text style="stroke:none;fill:black;font-family:-apple-system,&quot;SF Pro Display&quot;,&quot;SF Pro Text&quot;,Helvetica,sans-serif;" transform="matrix(1 0 0 1 776 1989)">can be adjusted by modifying the x-location of the margin guidelines.</text>
  <text style="stroke:none;fill:black;font-family:-apple-system,&quot;SF Pro Display&quot;,&quot;SF Pro Text&quot;,Helvetica,sans-serif;" transform="matrix(1 0 0 1 776 2007)">Modifications are automatically applied proportionally to all</text>
  <text style="stroke:none;fill:black;font-family:-apple-system,&quot;SF Pro Display&quot;,&quot;SF Pro Text&quot;,Helvetica,sans-serif;" transform="matrix(1 0 0 1 776 2025)">scales and weights.</text>
  <g id="" transform="matrix(1 0 0 1 1289 1933)">
   <path d="M2.8418 1.86523L4.54102 3.57422C5.40039 4.44336 6.38672 4.38477 7.31445 3.35938L17.4902-7.85156C17.7539-7.76367 18.0273-7.7832 18.3398-7.8418L19.4043-8.03711L20.0684-7.36328L20.0293-6.80664C19.9902-6.30859 20.1172-5.92773 20.6055-5.44922L21.3672-4.70703C21.8457-4.22852 22.4609-4.19922 22.9297-4.66797L25.8398-7.58789C26.3086-8.05664 26.2891-8.65234 25.8105-9.13086L25.0391-9.89258C24.5605-10.3711 24.1895-10.5273 23.7109-10.4883L23.1348-10.4395L22.4902-11.0742L22.7344-12.1973C22.8613-12.7637 22.7051-13.2031 22.1191-13.7891L19.9219-15.9766C16.582-19.2969 12.1484-19.2188 9.25781-16.3281C8.83789-15.918 8.80859-15.3418 9.04297-14.9512C9.27734-14.5898 9.73633-14.3555 10.3809-14.5215C11.8457-14.8633 13.3691-14.9219 14.7949-13.9844L14.209-12.5293C14.0137-12.0508 13.9844-11.6504 14.1113-11.2891L3.04688-0.898438C2.06055 0.0195312 1.98242 0.996094 2.8418 1.86523ZM10.752-15.957C13.1836-17.7344 16.4746-17.4316 18.7012-15.2051L21.1328-12.793C21.3672-12.5586 21.4062-12.373 21.3379-12.0312L21.0156-10.5469L22.5195-9.0625L23.5059-9.12109C23.7598-9.13086 23.8379-9.11133 24.0332-8.91602L24.6094-8.33984L22.168-5.89844L21.5918-6.47461C21.3965-6.66992 21.3672-6.74805 21.377-7.01172L21.4453-7.98828L19.9512-9.47266L18.4277-9.21875C18.1055-9.15039 17.959-9.17969 17.7148-9.41406L15.7129-11.416C15.459-11.6504 15.4297-11.8164 15.5859-12.1875L16.4648-14.2773C14.9023-15.7324 12.8711-16.3574 10.8398-15.7617C10.6836-15.7227 10.625-15.8496 10.752-15.957ZM5.27344 2.30469L4.10156 1.14258C3.63281 0.683594 3.74023 0.341797 4.14062-0.0195312L14.9512-10.1953L16.416-8.71094L6.42578 2.27539C6.07422 2.67578 5.74219 2.77344 5.27344 2.30469Z"/>
  </g>
  <text style="stroke:none;fill:black;font-family:-apple-system,&quot;SF Pro Display&quot;,&quot;SF Pro Text&quot;,Helvetica,sans-serif;font-weight:bold;" transform="matrix(1 0 0 1 1289 1953)">Exporting</text>
  <text style="stroke:none;fill:black;font-family:-apple-system,&quot;SF Pro Display&quot;,&quot;SF Pro Text&quot;,Helvetica,sans-serif;" transform="matrix(1 0 0 1 1289 1971)">Symbols should be outlined when exporting to ensure the</text>
  <text style="stroke:none;fill:black;font-family:-apple-system,&quot;SF Pro Display&quot;,&quot;SF Pro Text&quot;,Helvetica,sans-serif;" transform="matrix(1 0 0 1 1289 1989)">design is preserved when submitting to Xcode.</text>
  <text id="template-version" style="stroke:none;fill:black;font-family:-apple-system,&quot;SF Pro Display&quot;,&quot;SF Pro Text&quot;,Helvetica,sans-serif;text-anchor:end;" transform="matrix(1 0 0 1 3036 1933)">Template v.2.0</text>
  <text style="stroke:none;fill:black;font-family:-apple-system,&quot;SF Pro Display&quot;,&quot;SF Pro Text&quot;,Helvetica,sans-serif;text-anchor:end;" transform="matrix(1 0 0 1 3036 1951)">Requires Xcode 12 or greater</text>
  <text style="stroke:none;fill:black;font-family:-apple-system,&quot;SF Pro Display&quot;,&quot;SF Pro Text&quot;,Helvetica,sans-serif;text-anchor:end;" transform="matrix(1 0 0 1 3036 1969)">Generated from opticaldiscdrive</text>
  <text style="stroke:none;fill:black;font-family:-apple-system,&quot;SF Pro Display&quot;,&quot;SF Pro Text&quot;,Helvetica,sans-serif;text-anchor:end;" transform="matrix(1 0 0 1 3036 1987)">Typeset at 100 points</text>
  <text style="stroke:none;fill:black;font-family:-apple-system,&quot;SF Pro Display&quot;,&quot;SF Pro Text&quot;,Helvetica,sans-serif;" transform="matrix(1 0 0 1 263 726)">Small</text>
  <text style="stroke:none;fill:black;font-family:-apple-system,&quot;SF Pro Display&quot;,&quot;SF Pro Text&quot;,Helvetica,sans-serif;" transform="matrix(1 0 0 1 263 1156)">Medium</text>
  <text style="stroke:none;fill:black;font-family:-apple-system,&quot;SF Pro Display&quot;,&quot;SF Pro Text&quot;,Helvetica,sans-serif;" transform="matrix(1 0 0 1 263 1586)">Large</text>
 </g>
 <g id="Guides">
  <g id="H-reference" style="fill:#27AAE1;stroke:none;" transform="matrix(1 0 0 1 339 696)">
   <path d="M0.976562 0L3.66211 0L12.9883-24.4629L45.752-24.4629L55.127 0L57.7637 0L30.6152-70.459L28.125-70.459ZM29.3457-67.1387L29.4434-67.1387L44.873-26.709L13.8672-26.709Z"/>
  </g>
  <line id="Baseline-S" style="fill:none;stroke:#27AAE1;opacity:1;stroke-width:0.5;" x1="263" x2="3036" y1="696" y2="696"/>
  <line id="Capline-S" style="fill:none;stroke:#27AAE1;opacity:1;stroke-width:0.5;" x1="263" x2="3036" y1="625.541" y2="625.541"/>
  <g id="H-reference" style="fill:#27AAE1;stroke:none;" transform="matrix(1 0 0 1 339 1126)">
   <path d="M0.976562 0L3.66211 0L12.9883-24.4629L45.752-24.4629L55.127 0L57.7637 0L30.6152-70.459L28.125-70.459ZM29.3457-67.1387L29.4434-67.1387L44.873-26.709L13.8672-26.709Z"/>
  </g>
  <line id="Baseline-M" style="fill:none;stroke:#27AAE1;opacity:1;stroke-width:0.5;" x1="263" x2="3036" y1="1126" y2="1126"/>
  <line id="Capline-M" style="fill:none;stroke:#27AAE1;opacity:1;stroke-width:0.5;" x1="263" x2="3036" y1="1055.54" y2="1055.54"/>
  <g id="H-reference" style="fill:#27AAE1;stroke:none;" transform="matrix(1 0 0 1 339 1556)">
   <path d="M0.976562 0L3.66211 0L12.9883-24.4629L45.752-24.4629L55.127 0L57.7637 0L30.6152-70.459L28.125-70.459ZM29.3457-67.1387L29.4434-67.1387L44.873-26.709L13.8672-26.709Z"/>
  </g>
  <line id="Baseline-L" style="fill:none;stroke:#27AAE1;opacity:1;stroke-width:0.5;" x1="263" x2="3036" y1="1556" y2="1556"/>
  <line id="Capline-L" style="fill:none;stroke:#27AAE1;opacity:1;stroke-width:0.5;" x1="263" x2="3036" y1="1485.54" y2="1485.54"/>
  <line id="left-margin" style="fill:none;stroke:#00AEEF;stroke-width:0.5;opacity:1.0;" x1="1379.75" x2="1379.75" y1="1030.79" y2="1150.12"/>
  <line id="right-margin" style="fill:none;stroke:#00AEEF;stroke-width:0.5;opacity:1.0;" x1="1519.94" x2="1519.94" y1="1030.79" y2="1150.12"/>
 </g>
 <g id="Symbols">
  <g id="Black-L" transform="matrix(1 0 0 1 2836.28 1556)">
   <path d="M16.0645-9.57031C16.0645 10.3516 29.8828 24.0723 50.4395 24.0723L143.799 24.0723C164.355 24.0723 178.174 10.3516 178.174-9.57031C178.174-15.918 176.465-21.5332 174.268-26.4648L151.758-76.4648C146.631-87.9395 137.012-94.4336 123.584-94.4336L70.8008-94.4336C57.373-94.4336 47.7539-87.9395 42.5781-76.4648L20.6543-27.4902C18.2617-22.2168 16.0645-16.4062 16.0645-9.57031ZM46.6309-42.8711L59.8145-72.9004C61.377-76.5625 65.1855-78.7109 69.9219-78.7109L124.463-78.7109C129.15-78.7109 133.008-76.5625 134.57-72.9004L147.705-42.8711C146.436-43.0664 145.166-43.2129 143.799-43.2129L50.4395-43.2129C49.1699-43.2129 47.8516-43.0664 46.6309-42.8711ZM34.5703-9.57031C34.5703-18.5547 40.8203-24.707 50.4395-24.707L143.799-24.707C153.418-24.707 159.717-18.5547 159.717-9.57031C159.717-0.146484 153.418 5.56641 143.799 5.56641L50.4395 5.56641C40.8203 5.56641 34.5703-0.585938 34.5703-9.57031ZM50.1465-9.57031C50.1465-6.34766 52.7832-3.71094 55.957-3.71094L138.428-3.71094C141.602-3.71094 144.238-6.34766 144.238-9.57031C144.238-12.8418 141.602-15.4297 138.428-15.4297L55.957-15.4297C52.7832-15.4297 50.1465-12.8418 50.1465-9.57031Z"/>
  </g>
  <g id="Heavy-L" transform="matrix(1 0 0 1 2541.35 1556)">
   <path d="M16.0645-9.57031C16.0645 9.27734 29.4434 22.5586 49.0723 22.5586L141.602 22.5586C161.23 22.5586 174.609 9.27734 174.609-9.57031C174.609-15.5273 172.949-20.752 170.898-25.4395L148.535-75.8301C143.652-86.8164 134.424-92.9199 121.68-92.9199L69.0918-92.9199C56.3477-92.9199 47.1191-86.8164 42.2363-75.8301L20.2637-26.2207C18.0664-21.2891 16.0645-15.8691 16.0645-9.57031ZM43.7012-40.9668L57.373-72.5098C59.1309-76.7578 63.2812-79.1504 68.5059-79.1504L122.266-79.1504C127.49-79.1504 131.641-76.7578 133.398-72.5098L147.07-40.9668C145.361-41.4062 143.555-41.6992 141.602-41.6992L49.0723-41.6992C47.168-41.6992 45.3613-41.4062 43.7012-40.9668ZM32.2266-9.57031C32.2266-18.9453 38.916-25.5371 49.0723-25.5371L141.602-25.5371C151.758-25.5371 158.447-18.9453 158.447-9.57031C158.447 0.341797 151.758 6.39648 141.602 6.39648L49.0723 6.39648C38.916 6.39648 32.2266-0.195312 32.2266-9.57031ZM48.291-9.57031C48.291-6.5918 50.6836-4.19922 53.6133-4.19922L137.158-4.19922C140.088-4.19922 142.529-6.5918 142.529-9.57031C142.529-12.5488 140.088-14.9414 137.158-14.9414L53.6133-14.9414C50.6836-14.9414 48.291-12.5488 48.291-9.57031Z"/>
  </g>
  <g id="Bold-L" transform="matrix(1 0 0 1 2246.64 1556)">
   <path d="M16.0645-9.57031C16.0645 8.05664 28.9551 20.8984 47.5098 20.8984L139.16 20.8984C157.715 20.8984 170.605 8.05664 170.605-9.57031C170.605-15.0391 169.043-19.9219 167.188-24.2676L144.922-75.0488C140.332-85.5469 131.543-91.2598 119.531-91.2598L67.2363-91.2598C55.2246-91.2598 46.4355-85.5469 41.8457-75.0488L19.8242-24.8047C17.8223-20.2637 16.0645-15.2832 16.0645-9.57031ZM40.4297-38.8184L54.6387-72.1191C56.6406-77.002 61.084-79.5898 66.9434-79.5898L119.824-79.5898C125.635-79.5898 130.127-77.002 132.129-72.1191L146.289-38.8184C144.141-39.5996 141.748-40.0391 139.16-40.0391L47.5098-40.0391C44.9707-40.0391 42.5781-39.5996 40.4297-38.8184ZM29.6387-9.57031C29.6387-19.3359 36.8164-26.4648 47.5098-26.4648L139.16-26.4648C149.854-26.4648 157.08-19.3359 157.08-9.57031C157.08 0.927734 149.854 7.32422 139.16 7.32422L47.5098 7.32422C36.8164 7.32422 29.6387 0.195312 29.6387-9.57031ZM46.1914-9.57031C46.1914-6.88477 48.3887-4.73633 51.0254-4.73633L135.742-4.73633C138.428-4.73633 140.576-6.88477 140.576-9.57031C140.576-12.2559 138.428-14.4043 135.742-14.4043L51.0254-14.4043C48.3887-14.4043 46.1914-12.2559 46.1914-9.57031Z"/>
  </g>
  <g id="Semibold-L" transform="matrix(1 0 0 1 1951.3 1556)">
   <path d="M16.0645-9.57031C16.0645 7.22656 28.6133 19.7754 46.4355 19.7754L137.5 19.7754C155.322 19.7754 167.871 7.22656 167.871-9.57031C167.871-14.6973 166.357-19.3359 164.6-23.4863L142.383-74.5605C138.037-84.668 129.541-90.0879 118.018-90.0879L65.9668-90.0879C54.4434-90.0879 45.9473-84.668 41.5527-74.5605L19.5312-23.8281C17.6758-19.5801 16.0645-14.8438 16.0645-9.57031ZM38.1348-37.3047L52.7344-71.8262C54.9316-77.1484 59.6191-79.9316 65.8691-79.9316L118.115-79.9316C124.365-79.9316 129.053-77.1484 131.25-71.8262L145.801-37.3535C143.262-38.3301 140.479-38.916 137.5-38.916L46.4355-38.916C43.457-38.916 40.6738-38.3301 38.1348-37.3047ZM27.832-9.57031C27.832-19.6289 35.3516-27.0996 46.4355-27.0996L137.5-27.0996C148.584-27.0996 156.104-19.6289 156.104-9.57031C156.104 1.31836 148.584 7.95898 137.5 7.95898L46.4355 7.95898C35.3516 7.95898 27.832 0.488281 27.832-9.57031ZM44.7754-9.57031C44.7754-7.08008 46.7773-5.07812 49.2188-5.07812L134.766-5.07812C137.256-5.07812 139.258-7.08008 139.258-9.57031C139.258-12.0605 137.256-14.0625 134.766-14.0625L49.2188-14.0625C46.7773-14.0625 44.7754-12.0605 44.7754-9.57031Z"/>
  </g>
  <g id="Medium-L" transform="matrix(1 0 0 1 1655.64 1556)">
   <path d="M16.0645-9.57031C16.0645 6.5918 28.3691 18.8965 45.6543 18.8965L136.23 18.8965C153.467 18.8965 165.771 6.5918 165.771-9.57031C165.771-14.4531 164.355-18.8477 162.646-22.9004L140.527-74.1699C136.279-83.9844 127.979-89.209 116.895-89.209L64.9902-89.209C53.8574-89.209 45.5566-83.9844 41.3574-74.1699L19.2871-23.0957C17.5781-18.9941 16.0645-14.5508 16.0645-9.57031ZM36.4258-36.1816L51.3184-71.6309C53.6133-77.2461 58.4961-80.1758 65.0391-80.1758L116.846-80.1758C123.389-80.1758 128.271-77.2461 130.566-71.6309L145.41-36.2305C142.627-37.3535 139.551-38.0371 136.23-38.0371L45.6543-38.0371C42.2852-38.0371 39.209-37.3535 36.4258-36.1816ZM26.4648-9.57031C26.4648-19.8242 34.2773-27.5879 45.6543-27.5879L136.23-27.5879C147.559-27.5879 155.371-19.8242 155.371-9.57031C155.371 1.61133 147.559 8.44727 136.23 8.44727L45.6543 8.44727C34.2773 8.44727 26.4648 0.683594 26.4648-9.57031ZM43.7012-9.57031C43.7012-7.22656 45.5566-5.37109 47.8516-5.37109L134.033-5.37109C136.377-5.37109 138.232-7.22656 138.232-9.57031C138.232-11.9141 136.377-13.7695 134.033-13.7695L47.8516-13.7695C45.5566-13.7695 43.7012-11.9141 43.7012-9.57031Z"/>
  </g>
  <g id="Regular-L" transform="matrix(1 0 0 1 1360.29 1556)">
   <path d="M16.0645-9.57031C16.0645 5.76172 28.0273 17.7734 44.5801 17.7734L134.57 17.7734C151.074 17.7734 163.037 5.76172 163.037-9.57031C163.037-14.1113 161.67-18.2617 160.107-22.1191L138.037-73.6328C134.033-83.1543 126.025-88.0859 115.43-88.0859L63.6719-88.0859C53.125-88.0859 45.1172-83.1543 41.1133-73.6328L18.9941-22.1191C17.4316-18.3105 16.0645-14.1113 16.0645-9.57031ZM34.1797-34.7168L49.4141-71.3379C51.9043-77.3926 56.9824-80.4688 63.9648-80.4688L115.186-80.4688C122.119-80.4688 127.246-77.3926 129.688-71.3379L144.873-34.7656C141.797-36.084 138.281-36.9141 134.57-36.9141L44.5801-36.9141C40.8203-36.9141 37.3047-36.084 34.1797-34.7168ZM24.707-9.57031C24.707-20.1172 32.8125-28.2227 44.5801-28.2227L134.57-28.2227C146.289-28.2227 154.395-20.1172 154.395-9.57031C154.395 1.95312 146.289 9.08203 134.57 9.08203L44.5801 9.08203C32.8125 9.08203 24.707 0.976562 24.707-9.57031ZM42.2852-9.57031C42.2852-7.4707 43.9941-5.76172 46.0938-5.76172L133.105-5.76172C135.205-5.76172 136.914-7.4707 136.914-9.57031C136.914-11.6699 135.205-13.3789 133.105-13.3789L46.0938-13.3789C43.9941-13.3789 42.2852-11.6699 42.2852-9.57031Z"/>
  </g>
  <g id="Light-L" transform="matrix(1 0 0 1 1064.78 1556)">
   <path d="M16.0645-9.27734C16.0645 5.17578 27.4902 16.5527 42.627 16.5527L134.082 16.5527C149.268 16.5527 160.645 5.17578 160.645-9.27734C160.645-13.623 159.326-17.5781 157.764-21.2402L134.619-73.5352C130.811-82.2754 123.535-86.8652 113.867-86.8652L62.8418-86.8652C53.1738-86.8652 45.8984-82.2754 42.0898-73.5352L18.9453-21.2402C17.3828-17.627 16.0645-13.623 16.0645-9.27734ZM31.2012-32.1777L48.4863-71.7285C51.0742-77.832 56.0547-80.957 62.7441-80.957L113.965-80.957C120.703-80.957 125.635-77.832 128.271-71.7285L145.459-32.2266C142.139-34.0332 138.232-35.1074 134.082-35.1074L42.627-35.1074C38.4277-35.1074 34.5215-34.0332 31.2012-32.1777ZM22.7051-9.27734C22.7051-20.0195 31.1523-28.4668 42.627-28.4668L134.082-28.4668C145.605-28.4668 154.053-20.0195 154.053-9.27734C154.053 2.09961 145.605 9.96094 134.082 9.96094L42.627 9.96094C31.1523 9.96094 22.7051 1.51367 22.7051-9.27734ZM41.4551-9.27734C41.4551-7.61719 42.8223-6.25 44.4824-6.25L132.324-6.25C133.984-6.25 135.303-7.61719 135.303-9.27734C135.303-10.9375 133.984-12.2559 132.324-12.2559L44.4824-12.2559C42.8223-12.2559 41.4551-10.9375 41.4551-9.27734Z"/>
  </g>
  <g id="Thin-L" transform="matrix(1 0 0 1 769.655 1556)">
   <path d="M16.0645-8.83789C16.0645 4.3457 26.709 14.9902 40.0879 14.9902L133.496 14.9902C146.826 14.9902 157.471 4.3457 157.471-8.83789C157.471-12.9395 156.201-16.6992 154.639-20.1172L130.078-73.4375C126.562-81.1523 120.264-85.2539 111.816-85.2539L61.7188-85.2539C53.2715-85.2539 46.9727-81.1523 43.457-73.4375L18.8477-20.1172C17.2852-16.748 16.0645-12.9395 16.0645-8.83789ZM27.2461-28.8574L47.2168-72.2168C49.9512-78.3691 54.7852-81.5918 61.1328-81.5918L112.402-81.5918C118.799-81.5918 123.584-78.3691 126.367-72.2168L146.24-28.9062C142.627-31.25 138.184-32.666 133.496-32.666L40.0879-32.666C35.3027-32.666 30.8594-31.25 27.2461-28.8574ZM19.9707-8.83789C19.9707-19.873 28.9062-28.7598 40.0879-28.7598L133.496-28.7598C144.678-28.7598 153.564-19.873 153.564-8.83789C153.564 2.29492 144.678 11.084 133.496 11.084L40.0879 11.084C28.9062 11.084 19.9707 2.19727 19.9707-8.83789ZM40.4297-8.83789C40.4297-7.8125 41.2598-6.93359 42.334-6.93359L131.299-6.93359C132.324-6.93359 133.203-7.8125 133.203-8.83789C133.203-9.91211 132.324-10.7422 131.299-10.7422L42.334-10.7422C41.2598-10.7422 40.4297-9.91211 40.4297-8.83789Z"/>
  </g>
  <g id="Ultralight-L" transform="matrix(1 0 0 1 473.749 1556)">
   <path d="M16.0645-8.64258C16.0645 3.95508 26.3184 14.209 38.7695 14.209L133.154 14.209C145.605 14.209 155.859 3.95508 155.859-8.64258C155.859-12.5977 154.59-16.2109 153.076-19.5312L127.783-73.3398C124.365-80.5664 118.604-84.4238 110.791-84.4238L61.1328-84.4238C53.3203-84.4238 47.5098-80.5664 44.1406-73.3398L18.7988-19.5312C17.2363-16.3086 16.0645-12.5977 16.0645-8.64258ZM25.1953-27.0996L46.5332-72.4609C49.4141-78.6621 54.1016-81.9336 60.3027-81.9336L111.621-81.9336C117.822-81.9336 122.51-78.6621 125.342-72.4609L146.631-27.1973C142.822-29.834 138.135-31.4453 133.154-31.4453L38.7695-31.4453C33.6914-31.4453 29.0039-29.834 25.1953-27.0996ZM18.6035-8.64258C18.6035-19.7754 27.7344-28.9062 38.7695-28.9062L133.154-28.9062C144.189-28.9062 153.32-19.7754 153.32-8.64258C153.32 2.39258 144.189 11.6699 133.154 11.6699L38.7695 11.6699C27.7344 11.6699 18.6035 2.53906 18.6035-8.64258ZM39.8926-8.64258C39.8926-7.91016 40.4785-7.27539 41.2109-7.27539L130.762-7.27539C131.494-7.27539 132.08-7.91016 132.08-8.64258C132.08-9.375 131.494-9.96094 130.762-9.96094L41.2109-9.96094C40.4785-9.96094 39.8926-9.375 39.8926-8.64258Z"/>
  </g>
  <g id="Black-M" transform="matrix(1 0 0 1 2856.35 1126)">
   <path d="M12.4512-15.1855C12.4512 1.2207 23.4375 12.1094 39.9414 12.1094L114.16 12.1094C130.615 12.1094 141.65 1.2207 141.65-15.1855C141.65-20.5566 140.186-25.293 138.281-29.3457L120.166-68.0664C115.918-77.1484 108.35-82.4707 97.5586-82.4707L56.6406-82.4707C45.8496-82.4707 38.2812-77.1484 34.0332-68.0664L16.5039-30.5176C14.4043-26.0254 12.4512-21.0938 12.4512-15.1855ZM38.5254-42.3828L49.1211-65.0879C50.0977-67.2363 52.6367-68.6523 55.4199-68.6523L98.7793-68.6523C101.562-68.6523 104.102-67.2363 105.078-65.0879L115.674-42.3828C115.186-42.3828 114.648-42.4316 114.16-42.4316L39.9414-42.4316C39.502-42.4316 38.9648-42.3828 38.5254-42.3828ZM28.8086-15.1855C28.8086-21.7285 33.3008-26.0742 39.9414-26.0742L114.16-26.0742C120.801-26.0742 125.244-21.7285 125.244-15.1855C125.244-8.64258 120.801-4.29688 114.16-4.29688L39.9414-4.29688C33.3008-4.29688 28.8086-8.59375 28.8086-15.1855ZM40.9668-15.1855C40.9668-12.5488 43.0664-10.4492 45.6543-10.4492L108.545-10.4492C111.133-10.4492 113.232-12.5488 113.232-15.1855C113.232-17.8223 111.133-19.9219 108.545-19.9219L45.6543-19.9219C43.0664-19.9219 40.9668-17.8223 40.9668-15.1855Z"/>
  </g>
  <g id="Heavy-M" transform="matrix(1 0 0 1 2561.3 1126)">
   <path d="M12.4512-15.2832C12.4512 0.195312 23.0957 10.791 38.916 10.791L111.865 10.791C127.686 10.791 138.33 0.195312 138.33-15.2832C138.33-20.2637 137.012-24.6094 135.254-28.4668L117.529-67.334C113.525-76.1719 106.152-81.1523 95.8496-81.1523L55.0781-81.1523C44.7266-81.1523 37.4023-76.1719 33.3984-67.334L16.0645-29.3457C14.209-25.1953 12.4512-20.6543 12.4512-15.2832ZM36.084-40.9668L46.7285-64.5996C47.9004-67.334 50.7812-68.9453 54.1992-68.9453L96.6797-68.9453C100.146-68.9453 102.979-67.334 104.199-64.5996L114.795-40.9668C113.867-41.1621 112.891-41.3086 111.865-41.3086L38.916-41.3086C37.9395-41.3086 36.9629-41.1621 36.084-40.9668ZM26.8066-15.2832C26.8066-22.168 31.6406-26.9531 38.916-26.9531L111.865-26.9531C119.141-26.9531 123.975-22.168 123.975-15.2832C123.975-8.10547 119.141-3.56445 111.865-3.56445L38.916-3.56445C31.6406-3.56445 26.8066-8.34961 26.8066-15.2832ZM39.1113-15.2832C39.1113-12.793 41.1133-10.8398 43.5059-10.8398L107.373-10.8398C109.814-10.8398 111.768-12.793 111.768-15.2832C111.768-17.7246 109.814-19.7266 107.373-19.7266L43.5059-19.7266C41.1133-19.7266 39.1113-17.7246 39.1113-15.2832Z"/>
  </g>
  <g id="Bold-M" transform="matrix(1 0 0 1 2266.42 1126)">
   <path d="M12.4512-15.332C12.4512-0.927734 22.7539 9.27734 37.793 9.27734L109.326 9.27734C124.365 9.27734 134.668-0.927734 134.668-15.332C134.668-19.873 133.398-23.877 131.836-27.4414L114.551-66.5527C110.791-75 103.711-79.6875 93.9453-79.6875L53.2715-79.6875C43.457-79.6875 36.377-75 32.666-66.5527L15.625-28.0273C13.9648-24.2676 12.4512-20.1172 12.4512-15.332ZM33.3496-39.3555L43.9941-64.0625C45.4102-67.4316 48.6816-69.3359 52.832-69.3359L94.3359-69.3359C98.5352-69.3359 101.807-67.4316 103.223-64.0625L113.818-39.3555C112.451-39.7461 110.938-39.9902 109.326-39.9902L37.793-39.9902C36.2305-39.9902 34.7168-39.7461 33.3496-39.3555ZM24.5605-15.332C24.5605-22.6562 29.834-27.8809 37.793-27.8809L109.326-27.8809C117.285-27.8809 122.559-22.6562 122.559-15.332C122.559-7.56836 117.285-2.83203 109.326-2.83203L37.793-2.83203C29.834-2.83203 24.5605-8.00781 24.5605-15.332ZM37.0605-15.332C37.0605-13.0859 38.916-11.2305 41.1621-11.2305L106.104-11.2305C108.301-11.2305 110.156-13.0859 110.156-15.332C110.156-17.627 108.301-19.4336 106.104-19.4336L41.1621-19.4336C38.916-19.4336 37.0605-17.627 37.0605-15.332Z"/>
  </g>
  <g id="Semibold-M" transform="matrix(1 0 0 1 1970.95 1126)">
   <path d="M12.4512-15.4297C12.4512-1.70898 22.5098 8.30078 37.0117 8.30078L107.568 8.30078C122.119 8.30078 132.178-1.70898 132.178-15.4297C132.178-19.6289 130.957-23.3887 129.492-26.7578L112.5-66.0156C108.936-74.2188 102.051-78.6621 92.627-78.6621L52.002-78.6621C42.627-78.6621 35.6934-74.2188 32.1289-66.0156L15.332-27.0996C13.8184-23.6328 12.4512-19.7754 12.4512-15.4297ZM31.4941-38.2324L42.1387-63.6719C43.7012-67.5293 47.2168-69.5801 51.9043-69.5801L92.7246-69.5801C97.4121-69.5801 100.977-67.5293 102.539-63.6719L113.135-38.2324C111.426-38.7695 109.57-39.1113 107.568-39.1113L37.0117-39.1113C35.0586-39.1113 33.2031-38.7695 31.4941-38.2324ZM22.998-15.4297C22.998-22.998 28.6133-28.5645 37.0117-28.5645L107.568-28.5645C116.016-28.5645 121.582-22.998 121.582-15.4297C121.582-7.17773 116.016-2.29492 107.568-2.29492L37.0117-2.29492C28.6133-2.29492 22.998-7.8125 22.998-15.4297ZM35.6934-15.4297C35.6934-13.2812 37.4023-11.5723 39.502-11.5723L105.176-11.5723C107.275-11.5723 109.033-13.2812 109.033-15.4297C109.033-17.5293 107.275-19.2871 105.176-19.2871L39.502-19.2871C37.4023-19.2871 35.6934-17.5293 35.6934-15.4297Z"/>
  </g>
  <g id="Medium-M" transform="matrix(1 0 0 1 1675.22 1126)">
   <path d="M12.4512-15.4785C12.4512-2.34375 22.3145 7.51953 36.4258 7.51953L106.25 7.51953C120.361 7.51953 130.225-2.34375 130.225-15.4785C130.225-19.4336 129.102-22.998 127.734-26.2207L110.938-65.5762C107.52-73.6328 100.732-77.8809 91.6504-77.8809L51.0742-77.8809C41.9434-77.8809 35.1562-73.6328 31.7871-65.5762L15.0879-26.416C13.6719-23.1445 12.4512-19.5312 12.4512-15.4785ZM30.0781-37.4023L40.7227-63.3789C42.3828-67.5781 46.1426-69.7754 51.1719-69.7754L91.5039-69.7754C96.582-69.7754 100.342-67.5781 102.002-63.3789L112.646-37.4023C110.693-38.0371 108.545-38.4277 106.25-38.4277L36.4258-38.4277C34.1309-38.4277 32.0312-38.0371 30.0781-37.4023ZM21.8262-15.4785C21.8262-23.2422 27.6367-29.0527 36.4258-29.0527L106.25-29.0527C115.039-29.0527 120.85-23.2422 120.85-15.4785C120.85-6.88477 115.039-1.9043 106.25-1.9043L36.4258-1.9043C27.6367-1.9043 21.8262-7.66602 21.8262-15.4785ZM34.6191-15.4785C34.6191-13.4277 36.2305-11.7676 38.2812-11.7676L104.492-11.7676C106.494-11.7676 108.154-13.4277 108.154-15.4785C108.154-17.4805 106.494-19.1406 104.492-19.1406L38.2812-19.1406C36.2305-19.1406 34.6191-17.4805 34.6191-15.4785Z"/>
  </g>
  <g id="Regular-M" transform="matrix(1 0 0 1 1379.75 1126)">
   <path d="M12.4512-15.5273C12.4512-3.125 22.0703 6.49414 35.6445 6.49414L104.541 6.49414C118.115 6.49414 127.734-3.125 127.734-15.5273C127.734-19.1895 126.66-22.4609 125.391-25.5371L108.936-65.0391C105.713-72.8516 99.0723-76.8555 90.332-76.8555L49.8535-76.8555C41.1133-76.8555 34.4727-72.8516 31.25-65.0391L14.7461-25.5371C13.5254-22.5098 12.4512-19.1895 12.4512-15.5273ZM28.2227-36.2793L38.8672-63.0371C40.7227-67.6758 44.7266-70.0195 50.2441-70.0195L89.9414-70.0195C95.459-70.0195 99.5117-67.6758 101.318-63.0371L111.963-36.2793C109.668-37.1094 107.227-37.5488 104.541-37.5488L35.6445-37.5488C32.959-37.5488 30.4688-37.1094 28.2227-36.2793ZM20.3125-15.5273C20.3125-23.584 26.416-29.6875 35.6445-29.6875L104.541-29.6875C113.77-29.6875 119.873-23.584 119.873-15.5273C119.873-6.49414 113.77-1.36719 104.541-1.36719L35.6445-1.36719C26.416-1.36719 20.3125-7.4707 20.3125-15.5273ZM33.2031-15.5273C33.2031-13.623 34.7656-12.0605 36.6699-12.0605L103.613-12.0605C105.518-12.0605 107.031-13.623 107.031-15.5273C107.031-17.4316 105.518-18.9453 103.613-18.9453L36.6699-18.9453C34.7656-18.9453 33.2031-17.4316 33.2031-15.5273Z"/>
  </g>
  <g id="Light-M" transform="matrix(1 0 0 1 1084.11 1126)">
   <path d="M12.4512-15.2344C12.4512-3.66211 21.5332 5.41992 33.8867 5.41992L104.102 5.41992C116.504 5.41992 125.586-3.66211 125.586-15.2344C125.586-18.7012 124.512-21.875 123.291-24.7559L105.859-64.9414C102.832-72.0703 96.875-75.7812 88.9648-75.7812L49.0723-75.7812C41.1621-75.7812 35.2051-72.0703 32.1777-64.9414L14.6973-24.7559C13.4766-21.875 12.4512-18.7012 12.4512-15.2344ZM25.5371-33.9844L37.9883-63.3301C39.9414-68.0664 43.8477-70.459 49.1699-70.459L88.8672-70.459C94.1895-70.459 98.0957-68.0664 100.049-63.3301L112.5-34.0332C110.01-35.2051 107.178-35.9375 104.102-35.9375L33.8867-35.9375C30.8594-35.9375 28.0273-35.2051 25.5371-33.9844ZM18.5059-15.2344C18.5059-23.4863 24.9023-29.8828 33.8867-29.8828L104.102-29.8828C113.135-29.8828 119.531-23.4863 119.531-15.2344C119.531-6.34766 113.135-0.585938 104.102-0.585938L33.8867-0.585938C24.9023-0.585938 18.5059-6.98242 18.5059-15.2344ZM32.5195-15.2344C32.5195-13.7695 33.6914-12.5488 35.2051-12.5488L102.881-12.5488C104.395-12.5488 105.615-13.7695 105.615-15.2344C105.615-16.748 104.395-17.9199 102.881-17.9199L35.2051-17.9199C33.6914-17.9199 32.5195-16.748 32.5195-15.2344Z"/>
  </g>
  <g id="Thin-M" transform="matrix(1 0 0 1 788.82 1126)">
   <path d="M12.4512-14.8926C12.4512-4.39453 20.8496 4.05273 31.5918 4.05273L103.564 4.05273C114.307 4.05273 122.754-4.39453 122.754-14.8926C122.754-18.1152 121.729-21.0449 120.508-23.7793L101.807-64.8438C99.0234-71.0938 93.8965-74.3164 87.1094-74.3164L48.0957-74.3164C41.2598-74.3164 36.1816-71.0938 33.3984-64.8438L14.5996-23.7793C13.4277-21.0938 12.4512-18.1152 12.4512-14.8926ZM21.9727-31.0059L36.8652-63.7695C38.9648-68.5547 42.7246-70.9961 47.7051-70.9961L87.4512-70.9961C92.4805-70.9961 96.2402-68.5547 98.3398-63.7695L113.135-31.0547C110.4-32.7637 107.08-33.7891 103.564-33.7891L31.5918-33.7891C28.0273-33.7891 24.707-32.7637 21.9727-31.0059ZM16.0645-14.8926C16.0645-23.3398 22.8516-30.127 31.5918-30.127L103.564-30.127C112.305-30.127 119.092-23.3398 119.092-14.8926C119.092-6.15234 112.305 0.390625 103.564 0.390625L31.5918 0.390625C22.8516 0.390625 16.0645-6.39648 16.0645-14.8926ZM31.543-14.8926C31.543-13.916 32.3242-13.1348 33.252-13.1348L101.953-13.1348C102.93-13.1348 103.711-13.916 103.711-14.8926C103.711-15.8203 102.93-16.6016 101.953-16.6016L33.252-16.6016C32.3242-16.6016 31.543-15.8203 31.543-14.8926Z"/>
  </g>
  <g id="Ultralight-M" transform="matrix(1 0 0 1 492.841 1126)">
   <path d="M12.4512-14.6973C12.4512-4.73633 20.5078 3.32031 30.4199 3.32031L103.32 3.32031C113.184 3.32031 121.289-4.73633 121.289-14.6973C121.289-17.7734 120.264-20.6543 119.092-23.2422L99.707-64.7949C97.0703-70.5566 92.4316-73.584 86.1816-73.584L47.5586-73.584C41.3086-73.584 36.6699-70.5566 33.9844-64.7949L14.5508-23.2422C13.3789-20.7031 12.4512-17.7734 12.4512-14.6973ZM20.166-29.4434L36.2793-64.0137C38.4766-68.7988 42.1387-71.2891 46.9727-71.2891L86.7676-71.2891C91.6016-71.2891 95.2637-68.7988 97.4609-64.0137L113.525-29.541C110.645-31.4941 107.08-32.666 103.32-32.666L30.4199-32.666C26.6113-32.666 23.0469-31.4941 20.166-29.4434ZM14.8438-14.6973C14.8438-23.291 21.8262-30.2734 30.4199-30.2734L103.32-30.2734C111.865-30.2734 118.896-23.291 118.896-14.6973C118.896-6.10352 111.865 0.927734 103.32 0.927734L30.4199 0.927734C21.8262 0.927734 14.8438-6.05469 14.8438-14.6973ZM31.0547-14.6973C31.0547-14.0137 31.6406-13.4766 32.2754-13.4766L101.514-13.4766C102.148-13.4766 102.734-14.0137 102.734-14.6973C102.734-15.332 102.148-15.8691 101.514-15.8691L32.2754-15.8691C31.6406-15.8691 31.0547-15.332 31.0547-14.6973Z"/>
  </g>
  <g id="Black-S" transform="matrix(1 0 0 1 2873.15 696)">
   <path d="M9.76562-19.5312C9.76562-6.73828 18.3594 1.75781 31.25 1.75781L89.2578 1.75781C102.148 1.75781 110.742-6.73828 110.742-19.5312C110.742-23.7305 109.619-27.3926 108.154-30.5664L93.9941-60.8887C90.6738-68.0176 84.7656-72.168 76.3184-72.168L44.2871-72.168C35.8398-72.168 29.9316-68.0176 26.6113-60.8887L12.8906-31.4453C11.2793-27.9785 9.76562-24.1211 9.76562-19.5312ZM30.0293-40.7715L38.3301-58.5938C39.1113-60.3027 41.1133-61.4258 43.3594-61.4258L77.2461-61.4258C79.4922-61.4258 81.4941-60.3027 82.2754-58.5938L90.5762-40.7715C90.1367-40.7715 89.6973-40.8203 89.2578-40.8203L31.25-40.8203C30.8594-40.8203 30.4199-40.7715 30.0293-40.7715ZM22.4609-19.5312C22.4609-24.707 25.9766-28.125 31.25-28.125L89.2578-28.125C94.5312-28.125 98.0469-24.707 98.0469-19.5312C98.0469-14.3555 94.5312-10.9375 89.2578-10.9375L31.25-10.9375C25.9766-10.9375 22.4609-14.3555 22.4609-19.5312ZM31.9336-19.5312C31.9336-17.4805 33.5938-15.8203 35.5957-15.8203L84.9609-15.8203C86.9629-15.8203 88.623-17.4805 88.623-19.5312C88.623-21.582 86.9629-23.2422 84.9609-23.2422L35.5957-23.2422C33.5938-23.2422 31.9336-21.582 31.9336-19.5312Z"/>
  </g>
  <g id="Heavy-S" transform="matrix(1 0 0 1 2577.56 696)">
   <path d="M9.76562-19.6289C9.76562-7.4707 18.1641 0.878906 30.6641 0.878906L87.5488 0.878906C100.049 0.878906 108.496-7.4707 108.496-19.6289C108.496-23.5352 107.422-26.9531 106.055-29.9805L92.2852-60.3516C89.1602-67.334 83.3496-71.2891 75.1953-71.2891L43.1641-71.2891C34.9609-71.2891 29.1504-67.334 26.0254-60.3516L12.5977-30.6152C11.1328-27.3926 9.76562-23.8281 9.76562-19.6289ZM28.4668-39.8926L36.5723-58.2031C37.5-60.3516 39.7949-61.6211 42.5293-61.6211L75.7812-61.6211C78.5156-61.6211 80.8105-60.3516 81.7383-58.2031L89.8438-39.8926C89.1113-40.0391 88.3789-40.1367 87.5488-40.1367L30.6641-40.1367C29.9316-40.1367 29.1504-40.0391 28.4668-39.8926ZM21.1426-19.6289C21.1426-25.0488 24.9023-28.7598 30.6641-28.7598L87.5488-28.7598C93.3105-28.7598 97.1191-25.0488 97.1191-19.6289C97.1191-13.9648 93.3105-10.498 87.5488-10.498L30.6641-10.498C24.9023-10.498 21.1426-14.209 21.1426-19.6289ZM30.6152-19.6289C30.6152-17.6758 32.2266-16.0645 34.1309-16.0645L84.1309-16.0645C86.084-16.0645 87.6465-17.6758 87.6465-19.6289C87.6465-21.582 86.084-23.1934 84.1309-23.1934L34.1309-23.1934C32.2266-23.1934 30.6152-21.582 30.6152-19.6289Z"/>
  </g>
  <g id="Bold-S" transform="matrix(1 0 0 1 2282.12 696)">
   <path d="M9.76562-19.7266C9.76562-8.25195 17.9688-0.146484 30.0293-0.146484L85.6934-0.146484C97.7539-0.146484 105.957-8.25195 105.957-19.7266C105.957-23.291 104.932-26.4648 103.711-29.2969L90.4297-59.7656C87.4512-66.5527 81.7383-70.2637 73.877-70.2637L41.8457-70.2637C34.0332-70.2637 28.3203-66.5527 25.3418-59.7656L12.2559-29.7363C10.9375-26.7578 9.76562-23.4863 9.76562-19.7266ZM26.709-38.9648L34.6191-57.7148C35.6934-60.4004 38.2812-61.8652 41.6504-61.8652L74.1211-61.8652C77.4414-61.8652 80.0781-60.4004 81.1523-57.7148L89.0137-38.9648C87.9883-39.209 86.8652-39.3066 85.6934-39.3066L30.0293-39.3066C28.8574-39.3066 27.7832-39.209 26.709-38.9648ZM19.6289-19.7266C19.6289-25.4395 23.7305-29.4434 30.0293-29.4434L85.6934-29.4434C91.9922-29.4434 96.0449-25.4395 96.0449-19.7266C96.0449-13.5742 91.9922-10.0098 85.6934-10.0098L30.0293-10.0098C23.7305-10.0098 19.6289-14.0137 19.6289-19.7266ZM29.1504-19.7266C29.1504-17.8711 30.6641-16.3574 32.5195-16.3574L83.2031-16.3574C85.0586-16.3574 86.5723-17.8711 86.5723-19.7266C86.5723-21.582 85.0586-23.0957 83.2031-23.0957L32.5195-23.0957C30.6641-23.0957 29.1504-21.582 29.1504-19.7266Z"/>
  </g>
  <g id="Semibold-S" transform="matrix(1 0 0 1 1986.28 696)">
   <path d="M9.76562-19.8242C9.76562-8.83789 17.8223-0.830078 29.5898-0.830078L84.375-0.830078C96.1426-0.830078 104.199-8.83789 104.199-19.8242C104.199-23.1445 103.223-26.123 102.1-28.8086L89.1113-59.3262C86.2793-66.0156 80.6152-69.5801 72.998-69.5801L40.9668-69.5801C33.3496-69.5801 27.7344-66.0156 24.8535-59.3262L12.0117-29.1016C10.8398-26.3184 9.76562-23.291 9.76562-19.8242ZM25.5371-38.2812L33.252-57.373C34.4238-60.4004 37.2559-62.0117 41.0156-62.0117L72.9492-62.0117C76.709-62.0117 79.541-60.4004 80.7617-57.373L88.4766-38.2812C87.1582-38.623 85.8398-38.7695 84.375-38.7695L29.5898-38.7695C28.125-38.7695 26.8066-38.623 25.5371-38.2812ZM18.6035-19.8242C18.6035-25.6836 22.9004-29.9316 29.5898-29.9316L84.375-29.9316C91.0645-29.9316 95.3613-25.6836 95.3613-19.8242C95.3613-13.2812 91.0645-9.66797 84.375-9.66797L29.5898-9.66797C22.9004-9.66797 18.6035-13.916 18.6035-19.8242ZM28.125-19.8242C28.125-18.0176 29.5898-16.5527 31.3965-16.5527L82.5684-16.5527C84.375-16.5527 85.8398-18.0176 85.8398-19.8242C85.8398-21.6309 84.375-23.0469 82.5684-23.0469L31.3965-23.0469C29.5898-23.0469 28.125-21.6309 28.125-19.8242Z"/>
  </g>
  <g id="Medium-S" transform="matrix(1 0 0 1 1690.23 696)">
   <path d="M9.76562-19.873C9.76562-9.22852 17.6758-1.31836 29.248-1.31836L83.3984-1.31836C94.9219-1.31836 102.881-9.22852 102.881-19.873C102.881-23.0469 101.953-25.8789 100.879-28.4668L88.1348-59.0332C85.4004-65.5762 79.7852-69.043 72.3145-69.043L40.2832-69.043C32.8613-69.043 27.2461-65.5762 24.5117-59.0332L11.8652-28.6133C10.7422-25.9766 9.76562-23.0957 9.76562-19.873ZM24.6094-37.793L32.2266-57.1777C33.4961-60.4492 36.4746-62.1094 40.5273-62.1094L72.1191-62.1094C76.1719-62.1094 79.1504-60.4492 80.4199-57.1777L88.0371-37.793C86.5723-38.1836 85.0586-38.3789 83.3984-38.3789L29.248-38.3789C27.5879-38.3789 26.0742-38.1836 24.6094-37.793ZM17.8223-19.873C17.8223-25.8789 22.2656-30.3223 29.248-30.3223L83.3984-30.3223C90.3809-30.3223 94.8242-25.8789 94.8242-19.873C94.8242-13.0371 90.3809-9.375 83.3984-9.375L29.248-9.375C22.2656-9.375 17.8223-13.8184 17.8223-19.873ZM27.3438-19.873C27.3438-18.1152 28.7598-16.6992 30.5176-16.6992L82.1289-16.6992C83.8379-16.6992 85.2539-18.1152 85.2539-19.873C85.2539-21.6309 83.8379-23.0469 82.1289-23.0469L30.5176-23.0469C28.7598-23.0469 27.3438-21.6309 27.3438-19.873Z"/>
  </g>
  <g id="Regular-S" transform="matrix(1 0 0 1 1394.4 696)">
   <path d="M9.76562-19.9219C9.76562-9.81445 17.5293-2.00195 28.7598-2.00195L82.1289-2.00195C93.3594-2.00195 101.123-9.81445 101.123-19.9219C101.123-22.9004 100.244-25.5371 99.2676-28.0273L86.8164-58.6426C84.2285-65.0879 78.7109-68.4082 71.4844-68.4082L39.4531-68.4082C32.1777-68.4082 26.6602-65.0879 24.0723-58.6426L11.6211-28.0273C10.6445-25.5371 9.76562-22.9004 9.76562-19.9219ZM23.3887-37.1582L30.8594-56.8359C32.2754-60.4492 35.4492-62.2559 39.9414-62.2559L70.9961-62.2559C75.4395-62.2559 78.6621-60.4492 80.0293-56.8359L87.5-37.1582C85.791-37.5977 84.0332-37.8418 82.1289-37.8418L28.7598-37.8418C26.8555-37.8418 25.0977-37.5977 23.3887-37.1582ZM16.7969-19.9219C16.7969-26.1719 21.4355-30.8105 28.7598-30.8105L82.1289-30.8105C89.4531-30.8105 94.0918-26.1719 94.0918-19.9219C94.0918-12.793 89.4531-9.08203 82.1289-9.08203L28.7598-9.08203C21.4355-9.08203 16.7969-13.7207 16.7969-19.9219ZM26.3672-19.9219C26.3672-18.2129 27.7344-16.8457 29.3945-16.8457L81.4941-16.8457C83.1543-16.8457 84.5215-18.2129 84.5215-19.9219C84.5215-21.6309 83.1543-22.998 81.4941-22.998L29.3945-22.998C27.7344-22.998 26.3672-21.6309 26.3672-19.9219Z"/>
  </g>
  <g id="Light-S" transform="matrix(1 0 0 1 1098.64 696)">
   <path d="M9.76562-19.6777C9.76562-10.3027 17.0898-2.97852 27.2461-2.97852L81.7383-2.97852C91.8945-2.97852 99.2188-10.3027 99.2188-19.6777C99.2188-22.4609 98.3887-25 97.4121-27.3438L84.1309-58.5449C81.6895-64.4043 76.7578-67.4316 70.2148-67.4316L38.7695-67.4316C32.2266-67.4316 27.3438-64.4043 24.8535-58.5449L11.5723-27.3438C10.5957-25 9.76562-22.4609 9.76562-19.6777ZM21.0449-35.1562L30.127-57.1289C31.5918-60.791 34.7168-62.6465 38.9648-62.6465L70.0195-62.6465C74.2676-62.6465 77.3926-60.791 78.8574-57.1289L87.9395-35.1562C86.084-35.9375 83.9844-36.377 81.7383-36.377L27.2461-36.377C25-36.377 22.9004-35.9375 21.0449-35.1562ZM15.1855-19.6777C15.1855-26.0742 20.1172-30.957 27.2461-30.957L81.7383-30.957C88.916-30.957 93.7988-26.0742 93.7988-19.6777C93.7988-12.6465 88.916-8.39844 81.7383-8.39844L27.2461-8.39844C20.1172-8.39844 15.1855-13.2812 15.1855-19.6777ZM25.7324-19.6777C25.7324-18.3594 26.8066-17.2852 28.125-17.2852L80.8594-17.2852C82.1777-17.2852 83.252-18.3594 83.252-19.6777C83.252-20.9961 82.1777-22.0703 80.8594-22.0703L28.125-22.0703C26.8066-22.0703 25.7324-20.9961 25.7324-19.6777Z"/>
  </g>
  <g id="Thin-S" transform="matrix(1 0 0 1 803.175 696)">
   <path d="M9.76562-19.3359C9.76562-10.9375 16.5039-4.19922 25.1953-4.19922L81.25-4.19922C89.9902-4.19922 96.7285-10.9375 96.7285-19.3359C96.7285-21.9238 95.8984-24.2676 94.9707-26.4648L80.5176-58.4473C78.3203-63.5254 74.1699-66.1621 68.6035-66.1621L37.8906-66.1621C32.3242-66.1621 28.1738-63.5254 25.9277-58.4473L11.4746-26.4648C10.5469-24.3164 9.76562-21.9238 9.76562-19.3359ZM17.9199-32.4707L29.1016-57.5195C30.7129-61.2305 33.6914-63.1348 37.6953-63.1348L68.7988-63.1348C72.8027-63.1348 75.7324-61.2305 77.3926-57.5195L88.5254-32.5195C86.4258-33.7402 83.9355-34.5215 81.25-34.5215L25.1953-34.5215C22.5098-34.5215 20.0195-33.7402 17.9199-32.4707ZM13.0859-19.3359C13.0859-25.9766 18.3105-31.2012 25.1953-31.2012L81.25-31.2012C88.1836-31.2012 93.4082-25.9766 93.4082-19.3359C93.4082-12.5 88.1836-7.51953 81.25-7.51953L25.1953-7.51953C18.3105-7.51953 13.0859-12.7441 13.0859-19.3359ZM24.9023-19.3359C24.9023-18.5059 25.5859-17.8223 26.416-17.8223L80.0781-17.8223C80.9082-17.8223 81.5918-18.5059 81.5918-19.3359C81.5918-20.2148 80.9082-20.8984 80.0781-20.8984L26.416-20.8984C25.5859-20.8984 24.9023-20.2148 24.9023-19.3359Z"/>
  </g>
  <g id="Ultralight-S" transform="matrix(1 0 0 1 507.123 696)">
   <path d="M9.76562-19.1895C9.76562-11.2305 16.1621-4.83398 24.1699-4.83398L81.0059-4.83398C89.0137-4.83398 95.4102-11.2305 95.4102-19.1895C95.4102-21.6309 94.6289-23.9258 93.7012-25.9766L78.7109-58.3984C76.5625-63.0371 72.8027-65.4785 67.7734-65.4785L37.4023-65.4785C32.373-65.4785 28.6133-63.0371 26.4648-58.3984L11.4258-25.9766C10.498-23.9746 9.76562-21.6309 9.76562-19.1895ZM16.3086-31.1035L28.5645-57.7148C30.2734-61.4746 33.1543-63.4277 37.0117-63.4277L68.1641-63.4277C72.0215-63.4277 74.9023-61.4746 76.6113-57.7148L88.8672-31.1523C86.6211-32.6172 83.8867-33.5449 81.0059-33.5449L24.1699-33.5449C21.2402-33.5449 18.5059-32.6172 16.3086-31.1035ZM11.9629-19.1895C11.9629-25.8789 17.3828-31.2988 24.1699-31.2988L81.0059-31.2988C87.793-31.2988 93.2129-25.8789 93.2129-19.1895C93.2129-12.4023 87.793-7.03125 81.0059-7.03125L24.1699-7.03125C17.3828-7.03125 11.9629-12.4512 11.9629-19.1895ZM24.4629-19.1895C24.4629-18.6035 24.9512-18.1152 25.5371-18.1152L79.6387-18.1152C80.2246-18.1152 80.7129-18.6035 80.7129-19.1895C80.7129-19.7754 80.2246-20.2637 79.6387-20.2637L25.5371-20.2637C24.9512-20.2637 24.4629-19.7754 24.4629-19.1895Z"/>
  </g>
 </g>
</svg>
