<?xml version="1.0" encoding="UTF-8"?>
<!--Generator: Apple Native CoreSVG 149-->
<!DOCTYPE svg
PUBLIC "-//W3C//DTD SVG 1.1//EN"
       "http://www.w3.org/Graphics/SVG/1.1/DTD/svg11.dtd">
<svg version="1.1" xmlns="http://www.w3.org/2000/svg" xmlns:xlink="http://www.w3.org/1999/xlink" width="3300" height="2200">
 <!--glyph: "uni100211.medium", point size: 100.000000, font version: "Version 16.0d12e3", template writer version: "8"-->
 <g id="Notes">
  <rect height="2200" id="artboard" style="fill:white;opacity:1" width="3300" x="0" y="0"/>
  <line id="" style="fill:none;stroke:black;opacity:1;stroke-width:0.5;" x1="263" x2="3036" y1="292" y2="292"/>
  <text style="stroke:none;fill:black;font-family:-apple-system,&quot;SF Pro Display&quot;,&quot;SF Pro Text&quot;,Helvetica,sans-serif;font-weight:bold;" transform="matrix(1 0 0 1 263 322)">Weight/Scale Variations</text>
  <text style="stroke:none;fill:black;font-family:-apple-system,&quot;SF Pro Display&quot;,&quot;SF Pro Text&quot;,Helvetica,sans-serif;text-anchor:middle;" transform="matrix(1 0 0 1 559.711 322)">Ultralight</text>
  <text style="stroke:none;fill:black;font-family:-apple-system,&quot;SF Pro Display&quot;,&quot;SF Pro Text&quot;,Helvetica,sans-serif;text-anchor:middle;" transform="matrix(1 0 0 1 856.422 322)">Thin</text>
  <text style="stroke:none;fill:black;font-family:-apple-system,&quot;SF Pro Display&quot;,&quot;SF Pro Text&quot;,Helvetica,sans-serif;text-anchor:middle;" transform="matrix(1 0 0 1 1153.13 322)">Light</text>
  <text style="stroke:none;fill:black;font-family:-apple-system,&quot;SF Pro Display&quot;,&quot;SF Pro Text&quot;,Helvetica,sans-serif;text-anchor:middle;" transform="matrix(1 0 0 1 1449.84 322)">Regular</text>
  <text style="stroke:none;fill:black;font-family:-apple-system,&quot;SF Pro Display&quot;,&quot;SF Pro Text&quot;,Helvetica,sans-serif;text-anchor:middle;" transform="matrix(1 0 0 1 1746.56 322)">Medium</text>
  <text style="stroke:none;fill:black;font-family:-apple-system,&quot;SF Pro Display&quot;,&quot;SF Pro Text&quot;,Helvetica,sans-serif;text-anchor:middle;" transform="matrix(1 0 0 1 2043.27 322)">Semibold</text>
  <text style="stroke:none;fill:black;font-family:-apple-system,&quot;SF Pro Display&quot;,&quot;SF Pro Text&quot;,Helvetica,sans-serif;text-anchor:middle;" transform="matrix(1 0 0 1 2339.98 322)">Bold</text>
  <text style="stroke:none;fill:black;font-family:-apple-system,&quot;SF Pro Display&quot;,&quot;SF Pro Text&quot;,Helvetica,sans-serif;text-anchor:middle;" transform="matrix(1 0 0 1 2636.69 322)">Heavy</text>
  <text style="stroke:none;fill:black;font-family:-apple-system,&quot;SF Pro Display&quot;,&quot;SF Pro Text&quot;,Helvetica,sans-serif;text-anchor:middle;" transform="matrix(1 0 0 1 2933.4 322)">Black</text>
  <line id="" style="fill:none;stroke:black;opacity:1;stroke-width:0.5;" x1="263" x2="3036" y1="1903" y2="1903"/>
  <g id="" transform="matrix(1 0 0 1 263 1933)">
   <path d="M9.24805 0.830078C13.5547 0.830078 17.1387-2.74414 17.1387-7.05078C17.1387-11.3574 13.5449-14.9316 9.23828-14.9316C4.94141-14.9316 1.36719-11.3574 1.36719-7.05078C1.36719-2.74414 4.95117 0.830078 9.24805 0.830078ZM9.24805-0.654297C5.70312-0.654297 2.87109-3.49609 2.87109-7.05078C2.87109-10.6055 5.69336-13.4473 9.23828-13.4473C12.793-13.4473 15.6348-10.6055 15.6445-7.05078C15.6543-3.49609 12.8027-0.654297 9.24805-0.654297ZM9.22852-3.62305C9.69727-3.62305 9.9707-3.93555 9.9707-4.45312L9.9707-6.31836L12.002-6.31836C12.5-6.31836 12.832-6.57227 12.832-7.04102C12.832-7.51953 12.5195-7.7832 12.002-7.7832L9.9707-7.7832L9.9707-9.81445C9.9707-10.332 9.69727-10.6543 9.22852-10.6543C8.75977-10.6543 8.50586-10.3125 8.50586-9.81445L8.50586-7.7832L6.49414-7.7832C5.97656-7.7832 5.64453-7.51953 5.64453-7.04102C5.64453-6.57227 5.99609-6.31836 6.49414-6.31836L8.50586-6.31836L8.50586-4.45312C8.50586-3.95508 8.75977-3.62305 9.22852-3.62305Z"/>
  </g>
  <g id="" transform="matrix(1 0 0 1 281.506 1933)">
   <path d="M11.709 2.91016C17.1582 2.91016 21.6699-1.61133 21.6699-7.05078C21.6699-12.5 17.1484-17.0117 11.6992-17.0117C6.25977-17.0117 1.74805-12.5 1.74805-7.05078C1.74805-1.61133 6.26953 2.91016 11.709 2.91016ZM11.709 1.25C7.09961 1.25 3.41797-2.44141 3.41797-7.05078C3.41797-11.6602 7.08984-15.3516 11.6992-15.3516C16.3086-15.3516 20-11.6602 20.0098-7.05078C20.0195-2.44141 16.3184 1.25 11.709 1.25ZM11.6797-2.66602C12.207-2.66602 12.5098-3.01758 12.5098-3.59375L12.5098-6.23047L15.3223-6.23047C15.8691-6.23047 16.25-6.51367 16.25-7.03125C16.25-7.55859 15.8887-7.86133 15.3223-7.86133L12.5098-7.86133L12.5098-10.6836C12.5098-11.25 12.207-11.6113 11.6797-11.6113C11.1621-11.6113 10.8789-11.2305 10.8789-10.6836L10.8789-7.86133L8.07617-7.86133C7.50977-7.86133 7.13867-7.55859 7.13867-7.03125C7.13867-6.51367 7.5293-6.23047 8.07617-6.23047L10.8789-6.23047L10.8789-3.59375C10.8789-3.03711 11.1621-2.66602 11.6797-2.66602Z"/>
  </g>
  <g id="" transform="matrix(1 0 0 1 304.924 1933)">
   <path d="M14.9707 5.66406C21.9336 5.66406 27.6953-0.0976562 27.6953-7.05078C27.6953-14.0137 21.9238-19.7754 14.9609-19.7754C8.00781-19.7754 2.25586-14.0137 2.25586-7.05078C2.25586-0.0976562 8.01758 5.66406 14.9707 5.66406ZM14.9707 3.84766C8.93555 3.84766 4.08203-1.01562 4.08203-7.05078C4.08203-13.0957 8.92578-17.9492 14.9609-17.9492C21.0059-17.9492 25.8594-13.0957 25.8691-7.05078C25.8789-1.01562 21.0156 3.84766 14.9707 3.84766ZM14.9414-1.38672C15.5176-1.38672 15.8594-1.77734 15.8594-2.38281L15.8594-6.13281L19.7754-6.13281C20.3711-6.13281 20.7812-6.46484 20.7812-7.02148C20.7812-7.59766 20.3906-7.93945 19.7754-7.93945L15.8594-7.93945L15.8594-11.8652C15.8594-12.4805 15.5176-12.8711 14.9414-12.8711C14.375-12.8711 14.0527-12.4609 14.0527-11.8652L14.0527-7.93945L10.1465-7.93945C9.53125-7.93945 9.13086-7.59766 9.13086-7.02148C9.13086-6.46484 9.55078-6.13281 10.1465-6.13281L14.0527-6.13281L14.0527-2.38281C14.0527-1.79688 14.375-1.38672 14.9414-1.38672Z"/>
  </g>
  <text style="stroke:none;fill:black;font-family:-apple-system,&quot;SF Pro Display&quot;,&quot;SF Pro Text&quot;,Helvetica,sans-serif;font-weight:bold;" transform="matrix(1 0 0 1 263 1953)">Design Variations</text>
  <text style="stroke:none;fill:black;font-family:-apple-system,&quot;SF Pro Display&quot;,&quot;SF Pro Text&quot;,Helvetica,sans-serif;" transform="matrix(1 0 0 1 263 1971)">Symbols are supported in up to nine weights and three scales.</text>
  <text style="stroke:none;fill:black;font-family:-apple-system,&quot;SF Pro Display&quot;,&quot;SF Pro Text&quot;,Helvetica,sans-serif;" transform="matrix(1 0 0 1 263 1989)">For optimal layout with text and other symbols, vertically align</text>
  <text style="stroke:none;fill:black;font-family:-apple-system,&quot;SF Pro Display&quot;,&quot;SF Pro Text&quot;,Helvetica,sans-serif;" transform="matrix(1 0 0 1 263 2007)">symbols with the adjacent text.</text>
  <line id="" style="fill:none;stroke:#00AEEF;stroke-width:0.5;opacity:1.0;" x1="776" x2="776" y1="1919" y2="1933"/>
  <g id="" transform="matrix(1 0 0 1 776 1933)">
   <path d="M3.31055 0.126953C3.82812 0.126953 4.08203-0.0683594 4.26758-0.605469L5.52734-4.0625L11.2891-4.0625L12.5488-0.605469C12.7344-0.0683594 12.9883 0.126953 13.4961 0.126953C14.0137 0.126953 14.3457-0.185547 14.3457-0.673828C14.3457-0.839844 14.3164-0.986328 14.2383-1.20117L9.6582-13.3887C9.43359-13.9941 9.0332-14.2871 8.4082-14.2871C7.80273-14.2871 7.39258-13.9941 7.17773-13.3984L2.59766-1.19141C2.51953-0.976562 2.49023-0.830078 2.49023-0.664062C2.49023-0.175781 2.80273 0.126953 3.31055 0.126953ZM6.00586-5.53711L8.37891-12.1094L8.42773-12.1094L10.8008-5.53711Z"/>
  </g>
  <line id="" style="fill:none;stroke:#00AEEF;stroke-width:0.5;opacity:1.0;" x1="792.836" x2="792.836" y1="1919" y2="1933"/>
  <text style="stroke:none;fill:black;font-family:-apple-system,&quot;SF Pro Display&quot;,&quot;SF Pro Text&quot;,Helvetica,sans-serif;font-weight:bold;" transform="matrix(1 0 0 1 776 1953)">Margins</text>
  <text style="stroke:none;fill:black;font-family:-apple-system,&quot;SF Pro Display&quot;,&quot;SF Pro Text&quot;,Helvetica,sans-serif;" transform="matrix(1 0 0 1 776 1971)">Leading and trailing margins on the left and right side of each symbol</text>
  <text style="stroke:none;fill:black;font-family:-apple-system,&quot;SF Pro Display&quot;,&quot;SF Pro Text&quot;,Helvetica,sans-serif;" transform="matrix(1 0 0 1 776 1989)">can be adjusted by modifying the x-location of the margin guidelines.</text>
  <text style="stroke:none;fill:black;font-family:-apple-system,&quot;SF Pro Display&quot;,&quot;SF Pro Text&quot;,Helvetica,sans-serif;" transform="matrix(1 0 0 1 776 2007)">Modifications are automatically applied proportionally to all</text>
  <text style="stroke:none;fill:black;font-family:-apple-system,&quot;SF Pro Display&quot;,&quot;SF Pro Text&quot;,Helvetica,sans-serif;" transform="matrix(1 0 0 1 776 2025)">scales and weights.</text>
  <g id="" transform="matrix(1 0 0 1 1289 1933)">
   <path d="M2.8418 1.86523L4.54102 3.57422C5.40039 4.44336 6.38672 4.38477 7.31445 3.35938L17.4902-7.85156C17.7539-7.76367 18.0273-7.7832 18.3398-7.8418L19.4043-8.03711L20.0684-7.36328L20.0293-6.80664C19.9902-6.30859 20.1172-5.92773 20.6055-5.44922L21.3672-4.70703C21.8457-4.22852 22.4609-4.19922 22.9297-4.66797L25.8398-7.58789C26.3086-8.05664 26.2891-8.65234 25.8105-9.13086L25.0391-9.89258C24.5605-10.3711 24.1895-10.5273 23.7109-10.4883L23.1348-10.4395L22.4902-11.0742L22.7344-12.1973C22.8613-12.7637 22.7051-13.2031 22.1191-13.7891L19.9219-15.9766C16.582-19.2969 12.1484-19.2188 9.25781-16.3281C8.83789-15.918 8.80859-15.3418 9.04297-14.9512C9.27734-14.5898 9.73633-14.3555 10.3809-14.5215C11.8457-14.8633 13.3691-14.9219 14.7949-13.9844L14.209-12.5293C14.0137-12.0508 13.9844-11.6504 14.1113-11.2891L3.04688-0.898438C2.06055 0.0195312 1.98242 0.996094 2.8418 1.86523ZM10.752-15.957C13.1836-17.7344 16.4746-17.4316 18.7012-15.2051L21.1328-12.793C21.3672-12.5586 21.4062-12.373 21.3379-12.0312L21.0156-10.5469L22.5195-9.0625L23.5059-9.12109C23.7598-9.13086 23.8379-9.11133 24.0332-8.91602L24.6094-8.33984L22.168-5.89844L21.5918-6.47461C21.3965-6.66992 21.3672-6.74805 21.377-7.01172L21.4453-7.98828L19.9512-9.47266L18.4277-9.21875C18.1055-9.15039 17.959-9.17969 17.7148-9.41406L15.7129-11.416C15.459-11.6504 15.4297-11.8164 15.5859-12.1875L16.4648-14.2773C14.9023-15.7324 12.8711-16.3574 10.8398-15.7617C10.6836-15.7227 10.625-15.8496 10.752-15.957ZM5.27344 2.30469L4.10156 1.14258C3.63281 0.683594 3.74023 0.341797 4.14062-0.0195312L14.9512-10.1953L16.416-8.71094L6.42578 2.27539C6.07422 2.67578 5.74219 2.77344 5.27344 2.30469Z"/>
  </g>
  <text style="stroke:none;fill:black;font-family:-apple-system,&quot;SF Pro Display&quot;,&quot;SF Pro Text&quot;,Helvetica,sans-serif;font-weight:bold;" transform="matrix(1 0 0 1 1289 1953)">Exporting</text>
  <text style="stroke:none;fill:black;font-family:-apple-system,&quot;SF Pro Display&quot;,&quot;SF Pro Text&quot;,Helvetica,sans-serif;" transform="matrix(1 0 0 1 1289 1971)">Symbols should be outlined when exporting to ensure the</text>
  <text style="stroke:none;fill:black;font-family:-apple-system,&quot;SF Pro Display&quot;,&quot;SF Pro Text&quot;,Helvetica,sans-serif;" transform="matrix(1 0 0 1 1289 1989)">design is preserved when submitting to Xcode.</text>
  <text id="template-version" style="stroke:none;fill:black;font-family:-apple-system,&quot;SF Pro Display&quot;,&quot;SF Pro Text&quot;,Helvetica,sans-serif;text-anchor:end;" transform="matrix(1 0 0 1 3036 1933)">Template v.2.0</text>
  <text style="stroke:none;fill:black;font-family:-apple-system,&quot;SF Pro Display&quot;,&quot;SF Pro Text&quot;,Helvetica,sans-serif;text-anchor:end;" transform="matrix(1 0 0 1 3036 1951)">Requires Xcode 12 or greater</text>
  <text style="stroke:none;fill:black;font-family:-apple-system,&quot;SF Pro Display&quot;,&quot;SF Pro Text&quot;,Helvetica,sans-serif;text-anchor:end;" transform="matrix(1 0 0 1 3036 1969)">Generated from trash</text>
  <text style="stroke:none;fill:black;font-family:-apple-system,&quot;SF Pro Display&quot;,&quot;SF Pro Text&quot;,Helvetica,sans-serif;text-anchor:end;" transform="matrix(1 0 0 1 3036 1987)">Typeset at 100 points</text>
  <text style="stroke:none;fill:black;font-family:-apple-system,&quot;SF Pro Display&quot;,&quot;SF Pro Text&quot;,Helvetica,sans-serif;" transform="matrix(1 0 0 1 263 726)">Small</text>
  <text style="stroke:none;fill:black;font-family:-apple-system,&quot;SF Pro Display&quot;,&quot;SF Pro Text&quot;,Helvetica,sans-serif;" transform="matrix(1 0 0 1 263 1156)">Medium</text>
  <text style="stroke:none;fill:black;font-family:-apple-system,&quot;SF Pro Display&quot;,&quot;SF Pro Text&quot;,Helvetica,sans-serif;" transform="matrix(1 0 0 1 263 1586)">Large</text>
 </g>
 <g id="Guides">
  <g id="H-reference" style="fill:#27AAE1;stroke:none;" transform="matrix(1 0 0 1 339 696)">
   <path d="M0.976562 0L3.66211 0L12.9883-24.4629L45.752-24.4629L55.127 0L57.7637 0L30.6152-70.459L28.125-70.459ZM29.3457-67.1387L29.4434-67.1387L44.873-26.709L13.8672-26.709Z"/>
  </g>
  <line id="Baseline-S" style="fill:none;stroke:#27AAE1;opacity:1;stroke-width:0.5;" x1="263" x2="3036" y1="696" y2="696"/>
  <line id="Capline-S" style="fill:none;stroke:#27AAE1;opacity:1;stroke-width:0.5;" x1="263" x2="3036" y1="625.541" y2="625.541"/>
  <g id="H-reference" style="fill:#27AAE1;stroke:none;" transform="matrix(1 0 0 1 339 1126)">
   <path d="M0.976562 0L3.66211 0L12.9883-24.4629L45.752-24.4629L55.127 0L57.7637 0L30.6152-70.459L28.125-70.459ZM29.3457-67.1387L29.4434-67.1387L44.873-26.709L13.8672-26.709Z"/>
  </g>
  <line id="Baseline-M" style="fill:none;stroke:#27AAE1;opacity:1;stroke-width:0.5;" x1="263" x2="3036" y1="1126" y2="1126"/>
  <line id="Capline-M" style="fill:none;stroke:#27AAE1;opacity:1;stroke-width:0.5;" x1="263" x2="3036" y1="1055.54" y2="1055.54"/>
  <g id="H-reference" style="fill:#27AAE1;stroke:none;" transform="matrix(1 0 0 1 339 1556)">
   <path d="M0.976562 0L3.66211 0L12.9883-24.4629L45.752-24.4629L55.127 0L57.7637 0L30.6152-70.459L28.125-70.459ZM29.3457-67.1387L29.4434-67.1387L44.873-26.709L13.8672-26.709Z"/>
  </g>
  <line id="Baseline-L" style="fill:none;stroke:#27AAE1;opacity:1;stroke-width:0.5;" x1="263" x2="3036" y1="1556" y2="1556"/>
  <line id="Capline-L" style="fill:none;stroke:#27AAE1;opacity:1;stroke-width:0.5;" x1="263" x2="3036" y1="1485.54" y2="1485.54"/>
  <line id="left-margin" style="fill:none;stroke:#00AEEF;stroke-width:0.5;opacity:1.0;" x1="1395.08" x2="1395.08" y1="1030.79" y2="1150.12"/>
  <line id="right-margin" style="fill:none;stroke:#00AEEF;stroke-width:0.5;opacity:1.0;" x1="1504.61" x2="1504.61" y1="1030.79" y2="1150.12"/>
 </g>
 <g id="Symbols">
  <g id="Black-L" transform="matrix(1 0 0 1 2857.69 1556)">
   <path d="M46.4844 32.4707L104.98 32.4707C116.895 32.4707 123.926 26.3672 124.463 14.3555L128.369-73.1445L133.105-73.1445C138.086-73.1445 141.748-76.6113 141.748-81.5918C141.748-86.4746 138.086-89.8926 133.105-89.8926L107.666-89.8926L107.666-98.584C107.666-110.059 100.635-116.309 87.6465-116.309L63.7207-116.309C50.7324-116.309 43.7012-110.059 43.7012-98.584L43.7012-89.8926L18.3105-89.8926C13.3301-89.8926 9.66797-86.4746 9.66797-81.5918C9.66797-76.6113 13.3301-73.1445 18.3105-73.1445L23.0469-73.1445L26.9531 14.3555C27.4902 26.416 34.4727 32.4707 46.4844 32.4707ZM61.1816-98.1445C61.1816-100.195 62.6465-101.465 65.0879-101.465L86.2793-101.465C88.7207-101.465 90.1855-100.195 90.1855-98.1445L90.1855-89.8926L61.1816-89.8926ZM49.0234 15.3809C45.9473 15.3809 44.2383 13.3789 44.0918 9.66797L40.2832-73.1445L111.035-73.1445L107.324 9.66797C107.178 13.3789 105.518 15.3809 102.393 15.3809ZM57.4707 7.4707C61.1328 7.4707 63.4277 5.12695 63.2812 1.66016L61.4746-59.375C61.377-62.7441 59.0332-65.0391 55.4688-65.0391C51.9531-65.0391 49.707-62.7441 49.8535-59.2773L51.6602 1.80664C51.8066 5.17578 54.1504 7.4707 57.4707 7.4707ZM75.7324 7.4707C79.1504 7.4707 81.4941 5.22461 81.4941 1.85547L81.4941-59.4238C81.4941-62.793 79.1504-65.0391 75.7324-65.0391C72.2656-65.0391 69.9219-62.793 69.9219-59.4238L69.9219 1.85547C69.9219 5.22461 72.2656 7.4707 75.7324 7.4707ZM93.9453 7.4707C97.2656 7.4707 99.6094 5.17578 99.7559 1.80664L101.562-59.2773C101.709-62.7441 99.4629-65.0391 95.9473-65.0391C92.4316-65.0391 90.0391-62.7441 89.9414-59.375L88.1348 1.66016C87.9883 5.12695 90.2832 7.4707 93.9453 7.4707Z"/>
  </g>
  <g id="Heavy-L" transform="matrix(1 0 0 1 2562.3 1556)">
   <path d="M45.3125 31.6895L103.516 31.6895C114.648 31.6895 121.387 25.6836 121.924 14.502L125.977-74.3164L131.592-74.3164C135.938-74.3164 139.16-77.3926 139.16-81.7383C139.16-85.9863 135.938-89.0625 131.592-89.0625L105.225-89.0625L105.225-98.0469C105.225-108.838 98.5352-114.893 86.377-114.893L62.3535-114.893C50.2441-114.893 43.5059-108.838 43.5059-98.0469L43.5059-89.0625L17.2363-89.0625C12.9395-89.0625 9.66797-85.9863 9.66797-81.7383C9.66797-77.3926 12.9395-74.3164 17.2363-74.3164L22.8516-74.3164L26.9043 14.5508C27.4414 25.7324 34.1309 31.6895 45.3125 31.6895ZM58.9355-97.5586C58.9355-100.098 60.6445-101.66 63.5254-101.66L85.2539-101.66C88.0859-101.66 89.8438-100.098 89.8438-97.5586L89.8438-89.0625L58.9355-89.0625ZM47.4121 16.6992C44.1406 16.6992 42.1387 14.4531 41.9922 10.7422L38.0371-74.3164L110.645-74.3164L106.836 10.7422C106.641 14.502 104.688 16.6992 101.367 16.6992ZM56.0547 7.91016C59.3262 7.91016 61.4258 5.81055 61.2793 2.73438L59.4238-60.1562C59.3262-63.2324 57.1777-65.2832 54.0527-65.2832C50.8789-65.2832 48.8281-63.1836 48.9258-60.1074L50.7812 2.83203C50.9277 5.85938 53.0273 7.91016 56.0547 7.91016ZM74.4141 7.91016C77.5391 7.91016 79.6387 5.9082 79.6387 2.83203L79.6387-60.2051C79.6387-63.2324 77.5391-65.2832 74.4141-65.2832C71.2891-65.2832 69.1406-63.2324 69.1406-60.2051L69.1406 2.83203C69.1406 5.9082 71.2891 7.91016 74.4141 7.91016ZM92.7734 7.91016C95.8008 7.91016 97.9004 5.85938 97.998 2.83203L99.8535-60.1074C100-63.1836 97.9492-65.2344 94.7754-65.2344C91.6016-65.2344 89.4531-63.2324 89.4043-60.1562L87.5 2.73438C87.4023 5.81055 89.502 7.91016 92.7734 7.91016Z"/>
  </g>
  <g id="Bold-L" transform="matrix(1 0 0 1 2267.03 1556)">
   <path d="M43.9941 30.8105L101.904 30.8105C112.109 30.8105 118.555 24.9023 119.043 14.6973L123.291-75.6348L129.883-75.6348C133.496-75.6348 136.23-78.2715 136.23-81.8848C136.23-85.4492 133.496-88.0859 129.883-88.0859L102.49-88.0859L102.49-97.4121C102.49-107.52 96.1426-113.281 84.9609-113.281L60.8398-113.281C49.6582-113.281 43.3594-107.52 43.3594-97.4121L43.3594-88.0859L16.0156-88.0859C12.4512-88.0859 9.66797-85.4492 9.66797-81.8848C9.66797-78.2715 12.4512-75.6348 16.0156-75.6348L22.6074-75.6348L26.8555 14.7461C27.3438 24.9512 33.7402 30.8105 43.9941 30.8105ZM56.3477-96.9727C56.3477-99.9512 58.4473-101.855 61.7676-101.855L84.0332-101.855C87.4023-101.855 89.4531-99.9512 89.4531-96.9727L89.4531-88.0859L56.3477-88.0859ZM45.6055 18.1641C42.1875 18.1641 39.7949 15.7227 39.6484 11.9141L35.4492-75.6348L110.254-75.6348L106.25 11.9141C106.055 15.7227 103.76 18.1641 100.244 18.1641ZM54.4434 8.39844C57.3242 8.39844 59.1309 6.54297 59.0332 3.90625L57.1289-61.084C57.0801-63.7207 55.1758-65.5273 52.4414-65.5273C49.6582-65.5273 47.8027-63.7207 47.9004-60.9863L49.8535 3.95508C49.9512 6.64062 51.7578 8.39844 54.4434 8.39844ZM72.9492 8.39844C75.7324 8.39844 77.5879 6.64062 77.5879 3.95508L77.5879-61.084C77.5879-63.7207 75.7324-65.5273 72.9492-65.5273C70.166-65.5273 68.3105-63.7207 68.3105-61.084L68.3105 3.95508C68.3105 6.64062 70.166 8.39844 72.9492 8.39844ZM91.4551 8.44727C94.1406 8.44727 95.9473 6.64062 96.0449 3.95508L97.998-60.9863C98.0957-63.6719 96.2402-65.4785 93.457-65.4785C90.7227-65.4785 88.8184-63.7207 88.7695-61.0352L86.8164 3.90625C86.7676 6.5918 88.5742 8.44727 91.4551 8.44727Z"/>
  </g>
  <g id="Semibold-L" transform="matrix(1 0 0 1 1971.34 1556)">
   <path d="M43.1152 30.2246L100.83 30.2246C110.352 30.2246 116.65 24.3652 117.09 14.8438L121.436-76.5137L128.711-76.5137C131.836-76.5137 134.229-78.9062 134.229-81.9824C134.229-85.0586 131.836-87.4023 128.711-87.4023L100.586-87.4023L100.586-97.0215C100.586-106.592 94.4824-112.207 83.9844-112.207L59.7656-112.207C49.3164-112.207 43.2129-106.592 43.2129-97.0215L43.2129-87.4023L15.1367-87.4023C12.1094-87.4023 9.61914-85.0586 9.61914-81.9824C9.61914-78.8574 12.1094-76.5137 15.1367-76.5137L22.4609-76.5137L26.8066 14.8438C27.2461 24.4141 33.4473 30.2246 43.1152 30.2246ZM54.5898-96.5332C54.5898-99.9023 56.8848-102.002 60.5469-102.002L83.252-102.002C86.9141-102.002 89.1602-99.9023 89.1602-96.5332L89.1602-87.4023L54.5898-87.4023ZM44.3848 19.1895C40.7715 19.1895 38.1836 16.5527 38.0371 12.7441L33.6914-76.5137L109.961-76.5137L105.859 12.7441C105.664 16.6016 103.125 19.1895 99.4629 19.1895ZM53.3203 8.74023C55.9082 8.74023 57.5684 7.08008 57.5195 4.6875L55.5664-61.6699C55.4688-64.1113 53.7598-65.6738 51.3184-65.6738C48.7793-65.6738 47.1191-64.0625 47.2168-61.6211L49.1699 4.73633C49.2676 7.17773 50.9277 8.74023 53.3203 8.74023ZM71.9727 8.74023C74.4629 8.74023 76.1719 7.12891 76.1719 4.73633L76.1719-61.6699C76.1719-64.0625 74.4629-65.6738 71.9727-65.6738C69.4336-65.6738 67.7246-64.0625 67.7246-61.6699L67.7246 4.73633C67.7246 7.12891 69.4336 8.74023 71.9727 8.74023ZM90.5273 8.78906C92.9688 8.78906 94.6289 7.17773 94.7266 4.78516L96.6797-61.6211C96.7285-64.0137 95.0684-65.6738 92.5781-65.6738C90.0879-65.6738 88.3789-64.0625 88.3301-61.6699L86.377 4.6875C86.2793 7.08008 87.9395 8.78906 90.5273 8.78906Z"/>
  </g>
  <g id="Medium-L" transform="matrix(1 0 0 1 1675.39 1556)">
   <path d="M42.4316 29.7363L100 29.7363C109.033 29.7363 115.137 23.9746 115.576 14.8926L120.02-77.1973L127.832-77.1973C130.566-77.1973 132.715-79.3457 132.715-82.0801C132.715-84.8145 130.566-86.9141 127.832-86.9141L99.1699-86.9141L99.1699-96.6797C99.1699-105.908 93.2617-111.377 83.252-111.377L58.9844-111.377C49.0234-111.377 43.1152-105.908 43.1152-96.6797L43.1152-86.9141L14.502-86.9141C11.8652-86.9141 9.61914-84.7656 9.61914-82.0801C9.61914-79.3457 11.8652-77.1973 14.502-77.1973L22.3633-77.1973L26.7578 14.9414C27.1973 24.0234 33.252 29.7363 42.4316 29.7363ZM53.2715-96.1914C53.2715-99.8047 55.7617-102.1 59.6191-102.1L82.6172-102.1C86.5234-102.1 88.9648-99.8047 88.9648-96.1914L88.9648-86.9141L53.2715-86.9141ZM43.457 19.9707C39.7461 19.9707 36.9629 17.1875 36.7676 13.3301L32.373-77.1973L109.766-77.1973L105.518 13.3301C105.371 17.2363 102.637 19.9707 98.8281 19.9707ZM52.4902 9.0332C54.8828 9.0332 56.3965 7.4707 56.3477 5.32227L54.3457-62.1582C54.2969-64.3555 52.6855-65.8203 50.4883-65.8203C48.1445-65.8203 46.6309-64.3066 46.6797-62.1094L48.6816 5.32227C48.7305 7.56836 50.2441 9.0332 52.4902 9.0332ZM71.1914 9.0332C73.4863 9.0332 75.0977 7.51953 75.0977 5.32227L75.0977-62.1094C75.0977-64.3066 73.4863-65.8203 71.1914-65.8203C68.8477-65.8203 67.2852-64.3066 67.2852-62.1094L67.2852 5.32227C67.2852 7.51953 68.8477 9.0332 71.1914 9.0332ZM89.8438 9.0332C92.0898 9.0332 93.6523 7.56836 93.7012 5.37109L95.6543-62.0605C95.752-64.3066 94.1895-65.7715 91.8945-65.7715C89.6484-65.7715 88.0371-64.3555 87.9883-62.1582L86.0352 5.32227C85.9375 7.51953 87.5 9.0332 89.8438 9.0332Z"/>
  </g>
  <g id="Regular-L" transform="matrix(1 0 0 1 1379.68 1556)">
   <path d="M41.5039 29.1504L98.877 29.1504C107.324 29.1504 113.232 23.4375 113.672 15.0391L118.213-78.125L126.66-78.125C128.955-78.125 130.713-79.9805 130.713-82.1777C130.713-84.4238 128.906-86.2793 126.66-86.2793L97.2656-86.2793L97.2656-96.2891C97.2656-104.98 91.6016-110.303 82.3242-110.303L57.9102-110.303C48.6328-110.303 43.0176-104.98 43.0176-96.2891L43.0176-86.2793L13.6719-86.2793C11.5234-86.2793 9.61914-84.375 9.61914-82.1777C9.61914-79.9316 11.5234-78.125 13.6719-78.125L22.2168-78.125L26.7578 15.0879C27.1484 23.4863 33.0078 29.1504 41.5039 29.1504ZM51.5625-95.8008C51.5625-99.707 54.248-102.246 58.3984-102.246L81.8359-102.246C86.0352-102.246 88.7207-99.707 88.7207-95.8008L88.7207-86.2793L51.5625-86.2793ZM42.1875 20.9961C38.3789 20.9961 35.4004 18.0664 35.2051 14.1602L30.6152-78.125L109.473-78.125L105.127 14.1602C104.932 18.1152 102.002 20.9961 98.0957 20.9961ZM51.416 9.375C53.5156 9.375 54.834 8.00781 54.7852 6.10352L52.7832-62.793C52.7344-64.6973 51.3184-65.9668 49.3652-65.9668C47.3145-65.9668 45.9473-64.6484 45.9961-62.6953L47.998 6.10352C48.0469 8.05664 49.4141 9.375 51.416 9.375ZM70.2148 9.375C72.2656 9.375 73.6816 8.00781 73.6816 6.10352L73.6816-62.6953C73.6816-64.6484 72.2656-65.9668 70.2148-65.9668C68.1152-65.9668 66.6992-64.6484 66.6992-62.6953L66.6992 6.10352C66.6992 8.00781 68.1152 9.375 70.2148 9.375ZM88.9648 9.375C90.9668 9.375 92.334 8.10547 92.3828 6.15234L94.3848-62.6953C94.4336-64.6484 93.0664-65.918 90.9668-65.918C89.0137-65.918 87.5977-64.6973 87.5488-62.7441L85.5469 6.10352C85.498 8.00781 86.8652 9.375 88.9648 9.375Z"/>
  </g>
  <g id="Light-L" transform="matrix(1 0 0 1 1083.6 1556)">
   <path d="M41.1621 28.9062L97.9492 28.9062C105.615 28.9062 111.377 23.4375 111.768 15.8203L116.553-79.3945L126.318-79.3945C128.076-79.3945 129.443-80.8105 129.443-82.5195C129.443-84.2773 128.027-85.6934 126.318-85.6934L96.0449-85.6934L96.0449-96.2402C96.0449-104.443 90.7715-109.326 81.9824-109.326L56.9824-109.326C48.2422-109.326 42.9688-104.443 42.9688-96.2402L42.9688-85.6934L12.793-85.6934C11.084-85.6934 9.61914-84.2285 9.61914-82.5195C9.61914-80.7617 11.084-79.3945 12.793-79.3945L22.6074-79.3945L27.3926 15.8691C27.7832 23.4375 33.4473 28.9062 41.1621 28.9062ZM49.5117-95.9473C49.5117-100.391 52.4902-103.076 57.2266-103.076L81.7383-103.076C86.5723-103.076 89.502-100.391 89.502-95.9473L89.502-85.6934L49.5117-85.6934ZM41.6016 22.6074C37.4512 22.6074 34.082 19.3359 33.8867 15.1855L29.1016-79.3945L109.814-79.3945L105.176 15.1855C104.932 19.3848 101.611 22.6074 97.4121 22.6074ZM50.6348 9.76562C52.3438 9.76562 53.3691 8.64258 53.3691 7.17773L51.1719-63.7207C51.1719-65.2344 50-66.2598 48.4863-66.2598C46.875-66.2598 45.752-65.2344 45.8008-63.623L47.9492 7.22656C47.998 8.74023 49.0234 9.76562 50.6348 9.76562ZM69.5801 9.76562C71.1914 9.76562 72.3145 8.69141 72.3145 7.17773L72.3145-63.623C72.3145-65.1855 71.1914-66.2598 69.5801-66.2598C67.9688-66.2598 66.7969-65.1855 66.7969-63.623L66.7969 7.17773C66.7969 8.69141 67.9688 9.76562 69.5801 9.76562ZM88.4277 9.81445C90.0391 9.81445 91.1133 8.78906 91.1621 7.27539L93.3105-63.5742C93.3594-65.1855 92.2363-66.2109 90.625-66.2109C89.1113-66.2109 87.9395-65.1855 87.8906-63.6719L85.7422 7.22656C85.6934 8.69141 86.7676 9.81445 88.4277 9.81445Z"/>
  </g>
  <g id="Thin-L" transform="matrix(1 0 0 1 787.745 1556)">
   <path d="M40.6738 28.5645L96.7773 28.5645C103.369 28.5645 108.887 23.3887 109.229 16.8945L114.355-81.0547L125.83-81.0547C126.953-81.0547 127.783-81.9336 127.783-83.0078C127.783-84.1309 126.904-84.9121 125.83-84.9121L94.4336-84.9121L94.4336-96.2402C94.4336-103.662 89.6484-108.057 81.5918-108.057L55.7617-108.057C47.7539-108.057 42.9688-103.662 42.9688-96.2402L42.9688-84.9121L11.5723-84.9121C10.5469-84.9121 9.57031-84.0332 9.57031-83.0078C9.57031-81.8848 10.5469-81.0547 11.5723-81.0547L23.0957-81.0547L28.2715 16.8945C28.5645 23.3887 34.0332 28.5645 40.6738 28.5645ZM46.875-96.1914C46.875-101.221 50.1465-104.199 55.6641-104.199L81.6406-104.199C87.2559-104.199 90.5273-101.221 90.5273-96.1914L90.5273-84.9121L46.875-84.9121ZM40.7715 24.707C36.1816 24.707 32.373 21.0449 32.1289 16.5527L27.0996-81.0547L110.254-81.0547L105.176 16.5527C104.932 21.0449 101.123 24.707 96.582 24.707ZM49.6582 10.3516C50.7812 10.3516 51.416 9.52148 51.416 8.59375L49.0723-64.9902C49.0723-65.9668 48.2422-66.6016 47.3145-66.6016C46.2402-66.6016 45.5078-65.9668 45.5078-64.8438L47.9004 8.64258C47.9004 9.61914 48.5352 10.3516 49.6582 10.3516ZM68.75 10.3516C69.7754 10.3516 70.5566 9.61914 70.5566 8.59375L70.5566-64.8438C70.5566-65.8691 69.7754-66.6016 68.75-66.6016C67.7246-66.6016 66.9434-65.8691 66.9434-64.8438L66.9434 8.59375C66.9434 9.61914 67.7246 10.3516 68.75 10.3516ZM87.7441 10.4004C88.8672 10.4004 89.5508 9.66797 89.5508 8.74023L91.8945-64.7949C91.8945-65.8691 91.1621-66.5527 90.1367-66.5527C89.1602-66.5527 88.3789-65.8691 88.3301-64.9414L85.9863 8.64258C85.9863 9.61914 86.6699 10.4004 87.7441 10.4004Z"/>
  </g>
  <g id="Ultralight-L" transform="matrix(1 0 0 1 491.474 1556)">
   <path d="M40.4297 28.418L96.1426 28.418C102.246 28.418 107.666 23.3398 107.959 17.4316L113.281-81.9336L125.586-81.9336C126.416-81.9336 126.904-82.5195 126.904-83.252C126.904-84.0332 126.318-84.5215 125.586-84.5215L93.6035-84.5215L93.6035-96.2402C93.6035-103.271 89.0625-107.422 81.3965-107.422L55.127-107.422C47.5098-107.422 42.9688-103.271 42.9688-96.2402L42.9688-84.5215L10.9863-84.5215C10.2539-84.5215 9.57031-83.9355 9.57031-83.252C9.57031-82.4219 10.2539-81.9336 10.9863-81.9336L23.3887-81.9336L28.7109 17.4316C29.0039 23.3398 34.3262 28.418 40.4297 28.418ZM45.5078-96.2891C45.5078-101.66 48.9746-104.785 54.8828-104.785L81.5918-104.785C87.5977-104.785 91.0645-101.66 91.0645-96.2891L91.0645-84.5215L45.5078-84.5215ZM40.332 25.8301C35.5469 25.8301 31.4941 21.9238 31.25 17.2852L26.0254-81.9336L110.449-81.9336L105.225 17.2852C104.98 21.9238 100.879 25.8301 96.1426 25.8301ZM49.1211 10.6445C49.9512 10.6445 50.4395 9.96094 50.4395 9.32617L47.998-65.6738C47.998-66.3086 47.3633-66.7969 46.6797-66.7969C45.9473-66.7969 45.4102-66.3086 45.3613-65.4785L47.8516 9.375C47.8516 10.0586 48.291 10.6445 49.1211 10.6445ZM68.3105 10.6445C69.043 10.6445 69.6289 10.0586 69.6289 9.32617L69.6289-65.4785C69.6289-66.2598 69.043-66.7969 68.3105-66.7969C67.5781-66.7969 67.041-66.2598 67.041-65.4785L67.041 9.32617C67.041 10.0586 67.5781 10.6445 68.3105 10.6445ZM87.4023 10.6934C88.2324 10.6934 88.7207 10.1562 88.7207 9.47266L91.1621-65.3809C91.1621-66.2598 90.625-66.6992 89.8926-66.6992C89.209-66.6992 88.5742-66.2598 88.5742-65.5762L86.1328 9.375C86.1328 10.0586 86.5723 10.6934 87.4023 10.6934Z"/>
  </g>
  <g id="Black-M" transform="matrix(1 0 0 1 2873.34 1126)">
   <path d="M37.3535 18.1641L82.7637 18.1641C92.7246 18.1641 98.3887 13.4277 98.8281 3.41797L101.855-63.7207L104.98-63.7207C109.424-63.7207 112.646-66.6992 112.646-71.1426C112.646-75.4883 109.424-78.4668 104.98-78.4668L86.084-78.4668L86.084-85.0586C86.084-94.5312 80.4199-99.4629 69.4336-99.4629L50.7324-99.4629C39.7461-99.4629 34.0332-94.5312 34.0332-85.0586L34.0332-78.4668L15.1367-78.4668C10.6934-78.4668 7.4707-75.4883 7.4707-71.1426C7.4707-66.6992 10.6934-63.7207 15.1367-63.7207L18.3105-63.7207L21.2891 3.41797C21.7285 13.4277 27.3926 18.1641 37.3535 18.1641ZM49.4141-84.8145C49.4141-86.084 50.2441-86.7676 51.9043-86.7676L68.2129-86.7676C69.873-86.7676 70.752-86.084 70.752-84.8145L70.752-78.4668L49.4141-78.4668ZM39.7949 3.07617C37.5 3.07617 36.377 1.61133 36.2305-1.31836L33.4473-63.7207L86.6699-63.7207L83.8867-1.31836C83.7402 1.61133 82.666 3.07617 80.3711 3.07617ZM46.0449-2.49023C49.1211-2.49023 51.0742-4.54102 50.9277-7.4707L49.5117-53.3691C49.4629-56.25 47.4609-58.2031 44.4336-58.2031C41.4551-58.2031 39.5996-56.25 39.6973-53.2715L41.1621-7.32422C41.2598-4.44336 43.2129-2.49023 46.0449-2.49023ZM60.0586-2.49023C62.9395-2.49023 64.8926-4.39453 64.8926-7.27539L64.8926-53.418C64.8926-56.2988 62.9395-58.2031 60.0586-58.2031C57.1777-58.2031 55.2246-56.2988 55.2246-53.418L55.2246-7.27539C55.2246-4.39453 57.1777-2.49023 60.0586-2.49023ZM74.0723-2.49023C76.9043-2.49023 78.8574-4.44336 78.9551-7.32422L80.4199-53.2715C80.5176-56.25 78.6621-58.2031 75.6836-58.2031C72.7051-58.2031 70.7031-56.25 70.6055-53.3691L69.1895-7.4707C69.043-4.54102 70.9961-2.49023 74.0723-2.49023Z"/>
  </g>
  <g id="Heavy-M" transform="matrix(1 0 0 1 2577.88 1126)">
   <path d="M36.1816 17.3828L81.4453 17.3828C90.6738 17.3828 96.1426 12.6953 96.582 3.36914L99.6582-64.6973L103.418-64.6973C107.324-64.6973 110.156-67.334 110.156-71.2402C110.156-75 107.324-77.6855 103.418-77.6855L83.7402-77.6855L83.7402-84.4727C83.7402-93.3594 78.3203-98.1445 68.1152-98.1445L49.4629-98.1445C39.3066-98.1445 33.8867-93.3594 33.8867-84.4727L33.8867-77.6855L14.209-77.6855C10.3027-77.6855 7.4707-75 7.4707-71.2402C7.4707-67.334 10.3027-64.6973 14.209-64.6973L17.9688-64.6973L21.0449 3.36914C21.4844 12.6953 26.9043 17.3828 36.1816 17.3828ZM47.4121-84.1797C47.4121-85.791 48.5352-86.7188 50.4883-86.7188L67.0898-86.7188C69.043-86.7188 70.166-85.791 70.166-84.1797L70.166-77.6855L47.4121-77.6855ZM38.1836 4.10156C35.791 4.10156 34.4238 2.49023 34.3262-0.439453L31.3965-64.6973L86.1816-64.6973L83.3008-0.439453C83.2031 2.49023 81.8359 4.10156 79.3945 4.10156ZM44.6777-2.14844C47.4609-2.14844 49.2676-3.95508 49.1211-6.5918L47.7051-54.0039C47.6562-56.5918 45.8008-58.3496 43.1152-58.3496C40.3809-58.3496 38.6719-56.5918 38.7695-53.9062L40.2344-6.49414C40.332-3.90625 42.0898-2.14844 44.6777-2.14844ZM58.7891-2.14844C61.4746-2.14844 63.2324-3.85742 63.2324-6.44531L63.2324-54.0039C63.2324-56.6406 61.4746-58.3496 58.7891-58.3496C56.1523-58.3496 54.3945-56.6406 54.3945-54.0039L54.3945-6.44531C54.3945-3.85742 56.1523-2.14844 58.7891-2.14844ZM72.9492-2.14844C75.4883-2.14844 77.2949-3.90625 77.3926-6.49414L78.8574-53.9062C78.9551-56.5918 77.1973-58.3496 74.5117-58.3496C71.8262-58.3496 69.9707-56.5918 69.9219-54.0039L68.457-6.5918C68.3594-3.95508 70.166-2.14844 72.9492-2.14844Z"/>
  </g>
  <g id="Bold-M" transform="matrix(1 0 0 1 2282.58 1126)">
   <path d="M34.8633 16.5039L79.9805 16.5039C88.4277 16.5039 93.6035 11.8652 93.9941 3.32031L97.168-65.7227L101.66-65.7227C104.932-65.7227 107.324-68.0664 107.324-71.2891C107.324-74.4629 104.932-76.7578 101.66-76.7578L81.1035-76.7578L81.1035-83.7891C81.1035-92.0898 75.9277-96.6797 66.6992-96.6797L48.0957-96.6797C38.8184-96.6797 33.6914-92.0898 33.6914-83.7891L33.6914-76.7578L13.1348-76.7578C9.91211-76.7578 7.4707-74.4629 7.4707-71.2891C7.4707-68.0176 9.91211-65.7227 13.1348-65.7227L17.627-65.7227L20.8008 3.36914C21.1914 11.8652 26.3672 16.5039 34.8633 16.5039ZM45.2637-83.4473C45.2637-85.4492 46.6309-86.7188 48.9258-86.7188L65.8203-86.7188C68.1152-86.7188 69.5312-85.4492 69.5312-83.4473L69.5312-76.7578L45.2637-76.7578ZM36.4258 5.22461C33.8867 5.22461 32.2754 3.4668 32.1289 0.585938L29.0527-65.7227L85.6934-65.7227L82.666 0.585938C82.5684 3.51562 80.957 5.22461 78.3691 5.22461ZM43.1641-1.70898C45.6543-1.70898 47.2168-3.32031 47.1191-5.66406L45.6543-54.6875C45.6055-57.0312 43.9941-58.5449 41.6016-58.5449C39.209-58.5449 37.6465-56.9824 37.7441-54.6387L39.209-5.56641C39.3066-3.27148 40.8691-1.70898 43.1641-1.70898ZM57.4219-1.70898C59.7656-1.70898 61.377-3.22266 61.377-5.56641L61.377-54.6875C61.377-57.0312 59.7656-58.5449 57.4219-58.5449C55.0293-58.5449 53.418-57.0312 53.418-54.6875L53.418-5.56641C53.418-3.22266 55.0293-1.70898 57.4219-1.70898ZM71.6797-1.70898C73.9746-1.70898 75.5371-3.27148 75.6348-5.56641L77.0996-54.6387C77.1484-56.9824 75.6348-58.5449 73.1934-58.5449C70.8496-58.5449 69.1895-56.9824 69.1406-54.6875L67.6758-5.61523C67.627-3.32031 69.1895-1.70898 71.6797-1.70898Z"/>
  </g>
  <g id="Semibold-M" transform="matrix(1 0 0 1 1986.82 1126)">
   <path d="M33.9844 15.8691L78.9551 15.8691C86.8652 15.8691 91.8945 11.2793 92.2363 3.32031L95.5078-66.4551L100.488-66.4551C103.271-66.4551 105.42-68.5547 105.42-71.3379C105.42-74.0723 103.271-76.1719 100.488-76.1719L79.248-76.1719L79.248-83.3496C79.248-91.1621 74.3164-95.7031 65.7227-95.7031L47.1191-95.7031C38.4766-95.7031 33.5449-91.1621 33.5449-83.3496L33.5449-76.1719L12.4023-76.1719C9.66797-76.1719 7.4707-74.0723 7.4707-71.3379C7.4707-68.5547 9.66797-66.4551 12.4023-66.4551L17.3828-66.4551L20.6543 3.36914C21.0449 11.3281 25.9766 15.8691 33.9844 15.8691ZM43.75-82.959C43.75-85.2539 45.3125-86.7188 47.8516-86.7188L64.9902-86.7188C67.4805-86.7188 69.0918-85.2539 69.0918-82.959L69.0918-76.1719L43.75-76.1719ZM35.2051 6.05469C32.5684 6.05469 30.7617 4.15039 30.6641 1.26953L27.4414-66.4551L85.3027-66.4551L82.2266 1.26953C82.1289 4.19922 80.3223 6.05469 77.6367 6.05469ZM42.0898-1.41602C44.3848-1.41602 45.8008-2.88086 45.752-4.98047L44.2871-55.1758C44.2383-57.2754 42.7246-58.6914 40.5762-58.6914C38.3789-58.6914 36.9629-57.2754 37.0117-55.127L38.4766-4.93164C38.5742-2.83203 39.9902-1.41602 42.0898-1.41602ZM56.4453-1.41602C58.6426-1.41602 60.1074-2.83203 60.1074-4.93164L60.1074-55.1758C60.1074-57.2754 58.6426-58.6914 56.4453-58.6914C54.248-58.6914 52.7832-57.2754 52.7832-55.1758L52.7832-4.93164C52.7832-2.83203 54.248-1.41602 56.4453-1.41602ZM70.8008-1.41602C72.9004-1.41602 74.3164-2.83203 74.4141-4.93164L75.8789-55.127C75.9277-57.2266 74.5117-58.6426 72.3145-58.6426C70.166-58.6426 68.6523-57.2754 68.6035-55.1758L67.1387-4.98047C67.0898-2.88086 68.5059-1.41602 70.8008-1.41602Z"/>
  </g>
  <g id="Medium-M" transform="matrix(1 0 0 1 1690.84 1126)">
   <path d="M33.3008 15.3809L78.1738 15.3809C85.6934 15.3809 90.5273 10.8398 90.918 3.32031L94.1895-66.9922L99.5605-66.9922C102.051-66.9922 103.955-68.9453 103.955-71.3867C103.955-73.8281 102.002-75.6836 99.5605-75.6836L77.8809-75.6836L77.8809-83.0078C77.8809-90.5273 73.0957-94.9219 64.9414-94.9219L46.3867-94.9219C38.2324-94.9219 33.4473-90.5273 33.4473-83.0078L33.4473-75.6836L11.8652-75.6836C9.42383-75.6836 7.4707-73.7793 7.4707-71.3867C7.4707-68.8965 9.42383-66.9922 11.8652-66.9922L17.2363-66.9922L20.5078 3.32031C20.8984 10.8887 25.6836 15.3809 33.3008 15.3809ZM42.5781-82.5684C42.5781-85.0586 44.3359-86.6699 47.0215-86.6699L64.3066-86.6699C66.9922-86.6699 68.75-85.0586 68.75-82.5684L68.75-75.6836L42.5781-75.6836ZM34.2773 6.64062C31.5918 6.64062 29.6387 4.63867 29.4922 1.75781L26.2207-66.9922L85.0586-66.9922L81.8848 1.75781C81.7871 4.6875 79.8828 6.64062 77.0996 6.64062ZM41.3086-1.2207C43.4082-1.2207 44.7266-2.53906 44.6777-4.49219L43.2129-55.5664C43.1641-57.5195 41.7969-58.7891 39.7949-58.7891C37.7441-58.7891 36.4258-57.4707 36.4746-55.5176L37.9395-4.44336C37.9883-2.49023 39.3555-1.2207 41.3086-1.2207ZM55.7129-1.2207C57.7637-1.2207 59.1797-2.49023 59.1797-4.44336L59.1797-55.5176C59.1797-57.4707 57.7637-58.7891 55.7129-58.7891C53.6621-58.7891 52.2949-57.4707 52.2949-55.5176L52.2949-4.44336C52.2949-2.49023 53.6621-1.2207 55.7129-1.2207ZM70.1172-1.17188C72.0703-1.17188 73.4375-2.49023 73.4863-4.44336L74.9512-55.5176C75-57.4707 73.6816-58.7402 71.6309-58.7402C69.6289-58.7402 68.2617-57.4707 68.2129-55.5176L66.748-4.44336C66.6992-2.53906 68.0176-1.17188 70.1172-1.17188Z"/>
  </g>
  <g id="Regular-M" transform="matrix(1 0 0 1 1395.08 1126)">
   <path d="M32.373 14.7949L77.1484 14.7949C84.1309 14.7949 88.8184 10.2539 89.1602 3.27148L92.5293-67.7246L98.3887-67.7246C100.391-67.7246 102.051-69.4336 102.051-71.4355C102.051-73.4375 100.391-75.0977 98.3887-75.0977L76.0742-75.0977L76.0742-82.5684C76.0742-89.6484 71.4844-93.9453 63.9648-93.9453L45.459-93.9453C37.9395-93.9453 33.3496-89.6484 33.3496-82.5684L33.3496-75.0977L11.1328-75.0977C9.17969-75.0977 7.4707-73.4375 7.4707-71.4355C7.4707-69.3848 9.17969-67.7246 11.1328-67.7246L16.9922-67.7246L20.3613 3.32031C20.7031 10.3027 25.3418 14.7949 32.373 14.7949ZM41.1133-82.0801C41.1133-84.8633 43.0176-86.6699 45.9473-86.6699L63.4766-86.6699C66.4062-86.6699 68.3105-84.8633 68.3105-82.0801L68.3105-75.0977L41.1133-75.0977ZM33.0566 7.42188C30.2734 7.42188 28.1738 5.32227 28.0273 2.44141L24.6094-67.7246L84.668-67.7246L81.4941 2.44141C81.3477 5.37109 79.248 7.42188 76.3672 7.42188ZM40.2832-0.927734C42.1387-0.927734 43.3594-2.09961 43.3105-3.80859L41.8457-56.0547C41.7969-57.7637 40.5273-58.8867 38.7695-58.8867C36.9141-58.8867 35.6934-57.7148 35.7422-56.0059L37.2559-3.80859C37.3047-2.05078 38.4766-0.927734 40.2832-0.927734ZM54.7852-0.927734C56.6406-0.927734 57.9102-2.09961 57.9102-3.80859L57.9102-56.0059C57.9102-57.7148 56.6406-58.8867 54.7852-58.8867C52.9297-58.8867 51.6113-57.7148 51.6113-56.0059L51.6113-3.80859C51.6113-2.09961 52.9297-0.927734 54.7852-0.927734ZM69.2383-0.927734C70.9961-0.927734 72.2168-2.05078 72.2656-3.80859L73.7793-56.0059C73.8281-57.7148 72.5586-58.8867 70.7031-58.8867C68.9941-58.8867 67.7246-57.7637 67.6758-56.0059L66.2109-3.80859C66.1621-2.09961 67.3828-0.927734 69.2383-0.927734Z"/>
  </g>
  <g id="Light-M" transform="matrix(1 0 0 1 1098.96 1126)">
   <path d="M32.0801 14.5996L76.3672 14.5996C82.6172 14.5996 87.1582 10.2539 87.4512 4.00391L91.0645-68.8965L98.0469-68.8965C99.6582-68.8965 100.879-70.166 100.879-71.7285C100.879-73.3398 99.6094-74.6094 98.0469-74.6094L75-74.6094L75-82.5195C75-89.1113 70.752-93.0664 63.6719-93.0664L44.5801-93.0664C37.5977-93.0664 33.3008-89.1113 33.3008-82.5195L33.3008-74.6094L10.3027-74.6094C8.78906-74.6094 7.4707-73.291 7.4707-71.7285C7.4707-70.166 8.78906-68.8965 10.3027-68.8965L17.334-68.8965L20.9473 4.00391C21.2402 10.2539 25.7324 14.5996 32.0801 14.5996ZM39.3066-82.2266C39.3066-85.4492 41.4551-87.4512 44.873-87.4512L63.3789-87.4512C66.8457-87.4512 68.9941-85.4492 68.9941-82.2266L68.9941-74.6094L39.3066-74.6094ZM32.5195 8.88672C29.4434 8.88672 27.002 6.49414 26.8555 3.36914L23.2422-68.8965L84.9609-68.8965L81.4941 3.36914C81.3477 6.49414 78.9062 8.88672 75.7812 8.88672ZM39.5996-0.537109C41.0645-0.537109 42.041-1.51367 41.9922-2.83203L40.3809-56.8848C40.3809-58.252 39.3555-59.1309 37.9883-59.1309C36.5234-59.1309 35.5469-58.2031 35.5957-56.8359L37.207-2.83203C37.207-1.46484 38.1836-0.537109 39.5996-0.537109ZM54.1992-0.537109C55.6641-0.537109 56.6895-1.46484 56.6895-2.83203L56.6895-56.8359C56.6895-58.2031 55.6641-59.1309 54.1992-59.1309C52.7344-59.1309 51.709-58.2031 51.709-56.8359L51.709-2.83203C51.709-1.46484 52.7344-0.537109 54.1992-0.537109ZM68.7988-0.488281C70.2148-0.488281 71.1426-1.41602 71.1914-2.7832L72.8027-56.7871C72.8516-58.2031 71.875-59.1309 70.4102-59.1309C69.043-59.1309 68.0176-58.252 67.9688-56.8848L66.3574-2.83203C66.3574-1.46484 67.2852-0.488281 68.7988-0.488281Z"/>
  </g>
  <g id="Thin-M" transform="matrix(1 0 0 1 803.004 1126)">
   <path d="M31.6406 14.3066L75.2441 14.3066C80.6152 14.3066 84.9609 10.2051 85.2051 4.93164L89.1113-70.3613L97.6074-70.3613C98.6328-70.3613 99.3652-71.1914 99.3652-72.168C99.3652-73.1445 98.584-73.9258 97.6074-73.9258L73.5352-73.9258L73.5352-82.5195C73.5352-88.4277 69.7266-91.9434 63.3301-91.9434L43.457-91.9434C37.1094-91.9434 33.3008-88.4277 33.3008-82.5195L33.3008-73.9258L9.22852-73.9258C8.30078-73.9258 7.42188-73.0957 7.42188-72.168C7.42188-71.1426 8.30078-70.3613 9.22852-70.3613L17.8223-70.3613L21.7285 4.93164C21.9727 10.2051 26.2695 14.3066 31.6406 14.3066ZM36.9141-82.4219C36.9141-86.1816 39.4043-88.4277 43.5059-88.4277L63.3301-88.4277C67.4805-88.4277 69.9219-86.1816 69.9219-82.4219L69.9219-73.9258L36.9141-73.9258ZM31.7871 10.791C28.3203 10.791 25.4883 8.00781 25.293 4.58984L21.4355-70.3613L85.3516-70.3613L81.4941 4.58984C81.3477 8.00781 78.5156 10.791 75.0488 10.791ZM38.7207-0.0488281C39.6973-0.0488281 40.2832-0.732422 40.2832-1.5625L38.4766-58.0566C38.4766-58.8867 37.793-59.4727 36.9141-59.4727C35.9863-59.4727 35.3027-58.8867 35.3516-57.9102L37.1094-1.51367C37.1094-0.683594 37.7441-0.0488281 38.7207-0.0488281ZM53.4668-0.0488281C54.3945-0.0488281 55.0781-0.683594 55.0781-1.5625L55.0781-57.9102C55.0781-58.8379 54.3945-59.4727 53.4668-59.4727C52.5391-59.4727 51.8555-58.8379 51.8555-57.9102L51.8555-1.5625C51.8555-0.683594 52.5391-0.0488281 53.4668-0.0488281ZM68.1641 0C69.1406 0 69.7266-0.634766 69.7266-1.46484L71.5332-57.8613C71.5332-58.8379 70.8984-59.4238 69.9707-59.4238C69.0918-59.4238 68.4082-58.8379 68.3594-57.959L66.6016-1.51367C66.6016-0.683594 67.1875 0 68.1641 0Z"/>
  </g>
  <g id="Ultralight-M" transform="matrix(1 0 0 1 506.684 1126)">
   <path d="M31.3965 14.1602L74.707 14.1602C79.5898 14.1602 83.7891 10.1562 84.0332 5.41992L88.1348-71.1426L97.4121-71.1426C98.1445-71.1426 98.584-71.6797 98.584-72.3633C98.584-73.0957 98.0469-73.584 97.4121-73.584L72.8027-73.584L72.8027-82.5195C72.8027-88.0859 69.1895-91.3574 63.1348-91.3574L42.9199-91.3574C36.8652-91.3574 33.3008-88.0859 33.3008-82.5195L33.3008-73.584L8.69141-73.584C8.00781-73.584 7.42188-72.998 7.42188-72.3633C7.42188-71.6309 8.00781-71.1426 8.69141-71.1426L18.0176-71.1426L22.1191 5.41992C22.3633 10.1562 26.5137 14.1602 31.3965 14.1602ZM35.6934-82.5195C35.6934-86.5723 38.3301-88.9648 42.7734-88.9648L63.2812-88.9648C67.7734-88.9648 70.4102-86.5723 70.4102-82.5195L70.4102-73.584L35.6934-73.584ZM31.3965 11.7676C27.7832 11.7676 24.707 8.78906 24.5117 5.22461L20.5078-71.1426L85.5469-71.1426L81.543 5.22461C81.3477 8.78906 78.2715 11.7676 74.6582 11.7676ZM38.2324 0.244141C38.9648 0.244141 39.4043-0.341797 39.4043-0.927734L37.5-58.5938C37.5-59.2285 36.9629-59.6191 36.377-59.6191C35.6934-59.6191 35.2051-59.2285 35.2051-58.4961L37.1094-0.878906C37.1094-0.244141 37.5 0.244141 38.2324 0.244141ZM53.0762 0.244141C53.7598 0.244141 54.248-0.244141 54.248-0.927734L54.248-58.4961C54.248-59.1797 53.7598-59.6191 53.0762-59.6191C52.3926-59.6191 51.9531-59.1797 51.9531-58.4961L51.9531-0.927734C51.9531-0.244141 52.3926 0.244141 53.0762 0.244141ZM67.8711 0.292969C68.6035 0.292969 68.9941-0.195312 68.9941-0.78125L70.8984-58.4473C70.8984-59.1797 70.4102-59.5703 69.7266-59.5703C69.1406-59.5703 68.6035-59.1797 68.6035-58.5449L66.6992-0.878906C66.6992-0.244141 67.1387 0.292969 67.8711 0.292969Z"/>
  </g>
  <g id="Black-S" transform="matrix(1 0 0 1 2886.43 696)">
   <path d="M29.1992 6.54297L64.7461 6.54297C72.5098 6.54297 76.9531 2.83203 77.2949-4.98047L79.6387-57.6172L82.1289-57.6172C85.5957-57.6172 88.0859-59.9121 88.0859-63.3789C88.0859-66.748 85.5957-69.043 82.1289-69.043L67.2852-69.043L67.2852-74.2188C67.2852-81.5918 62.8418-85.4492 54.2969-85.4492L39.6484-85.4492C31.1035-85.4492 26.6602-81.5918 26.6602-74.2188L26.6602-69.043L11.8164-69.043C8.34961-69.043 5.85938-66.748 5.85938-63.3789C5.85938-59.9121 8.34961-57.6172 11.8164-57.6172L14.3066-57.6172L16.6504-4.98047C16.9922 2.83203 21.4355 6.54297 29.1992 6.54297ZM38.5742-74.0234C38.5742-75.0488 39.2578-75.5859 40.5762-75.5859L53.3691-75.5859C54.6875-75.5859 55.3711-75.0488 55.3711-74.0234L55.3711-69.043L38.5742-69.043ZM31.0547-5.17578C29.248-5.17578 28.3691-6.29883 28.2715-8.59375L26.0742-57.6172L67.8711-57.6172L65.6738-8.59375C65.5762-6.29883 64.6973-5.17578 62.8906-5.17578ZM35.9863-9.57031C38.3789-9.57031 39.8926-11.1328 39.7949-13.4277L38.6719-49.4629C38.623-51.709 37.0605-53.2227 34.7168-53.2227C32.4219-53.2227 30.957-51.709 31.0547-49.4141L32.1777-13.3301C32.2754-11.084 33.7891-9.57031 35.9863-9.57031ZM46.9727-9.57031C49.2188-9.57031 50.7324-11.0352 50.7324-13.2812L50.7324-49.5117C50.7324-51.7578 49.2188-53.2227 46.9727-53.2227C44.7266-53.2227 43.2129-51.7578 43.2129-49.5117L43.2129-13.2812C43.2129-11.0352 44.7266-9.57031 46.9727-9.57031ZM57.959-9.57031C60.1562-9.57031 61.6699-11.084 61.7676-13.3301L62.8906-49.4141C62.9883-51.709 61.5234-53.2227 59.2285-53.2227C56.8848-53.2227 55.3223-51.709 55.2734-49.4629L54.1504-13.4277C54.0527-11.1328 55.5664-9.57031 57.959-9.57031Z"/>
  </g>
  <g id="Heavy-S" transform="matrix(1 0 0 1 2590.62 696)">
   <path d="M28.3203 5.95703L63.8184 5.95703C71.1426 5.95703 75.3906 2.24609 75.7324-5.07812L78.125-58.2031L80.957-58.2031C84.0332-58.2031 86.2793-60.3027 86.2793-63.3789C86.2793-66.4062 84.0332-68.5059 80.957-68.5059L65.5762-68.5059L65.5762-73.7793C65.5762-80.7617 61.3281-84.5703 53.3203-84.5703L38.7695-84.5703C30.8105-84.5703 26.5137-80.7617 26.5137-73.7793L26.5137-68.5059L11.1816-68.5059C8.10547-68.5059 5.85938-66.4062 5.85938-63.3789C5.85938-60.3027 8.10547-58.2031 11.1816-58.2031L14.0137-58.2031L16.4062-5.07812C16.748 2.29492 20.9961 5.95703 28.3203 5.95703ZM37.2559-73.4863C37.2559-74.7559 38.1348-75.4883 39.5996-75.4883L52.4902-75.4883C54.0039-75.4883 54.834-74.7559 54.834-73.4863L54.834-68.5059L37.2559-68.5059ZM29.8828-4.54102C28.0273-4.54102 27.002-5.76172 26.9043-8.00781L24.6094-58.2031L67.4805-58.2031L65.2344-8.00781C65.1367-5.76172 64.1113-4.54102 62.2559-4.54102ZM35.0098-9.32617C37.2559-9.32617 38.623-10.7422 38.5742-12.8906L37.4512-49.8535C37.4023-51.9531 35.9375-53.3203 33.7891-53.3203C31.6406-53.3203 30.2734-51.9043 30.3711-49.8047L31.4941-12.793C31.543-10.6934 32.959-9.32617 35.0098-9.32617ZM46.0938-9.32617C48.1934-9.32617 49.6094-10.6934 49.6094-12.7441L49.6094-49.9023C49.6094-51.9531 48.1934-53.3203 46.0938-53.3203C43.9941-53.3203 42.5293-51.9531 42.5293-49.9023L42.5293-12.7441C42.5293-10.6934 43.9941-9.32617 46.0938-9.32617ZM57.1289-9.32617C59.1797-9.32617 60.5957-10.6934 60.6934-12.793L61.8164-49.8047C61.8652-51.9043 60.498-53.3203 58.3496-53.3203C56.2012-53.3203 54.7363-51.9531 54.6875-49.8535L53.6133-12.8906C53.5156-10.7422 54.9316-9.32617 57.1289-9.32617Z"/>
  </g>
  <g id="Bold-S" transform="matrix(1 0 0 1 2294.91 696)">
   <path d="M27.3926 5.32227L62.793 5.32227C69.5801 5.32227 73.6816 1.61133 73.9746-5.17578L76.416-58.8867L79.6875-58.8867C82.3242-58.8867 84.2773-60.791 84.2773-63.4277C84.2773-65.9668 82.3242-67.8711 79.6875-67.8711L63.7207-67.8711L63.7207-73.2422C63.7207-79.834 59.6191-83.5449 52.2949-83.5449L37.8418-83.5449C30.4688-83.5449 26.416-79.834 26.416-73.2422L26.416-67.8711L10.4492-67.8711C7.86133-67.8711 5.85938-65.9668 5.85938-63.4277C5.85938-60.791 7.86133-58.8867 10.4492-58.8867L13.7207-58.8867L16.1621-5.17578C16.4551 1.66016 20.5566 5.32227 27.3926 5.32227ZM35.8398-72.9492C35.8398-74.4141 36.8652-75.3906 38.5254-75.3906L51.5625-75.3906C53.2227-75.3906 54.2969-74.4141 54.2969-72.9492L54.2969-67.8711L35.8398-67.8711ZM28.6133-3.85742C26.709-3.85742 25.4883-5.17578 25.3906-7.37305L22.998-58.8867L67.041-58.8867L64.7461-7.37305C64.6484-5.12695 63.4766-3.85742 61.5234-3.85742ZM33.9355-9.0332C35.9375-9.0332 37.2559-10.3516 37.1582-12.2559L36.084-50.293C36.0352-52.1973 34.7168-53.418 32.7637-53.418C30.7617-53.418 29.4922-52.1484 29.5898-50.2441L30.6641-12.207C30.7617-10.3027 32.0801-9.0332 33.9355-9.0332ZM45.0684-9.0332C47.0215-9.0332 48.3398-10.3027 48.3398-12.1582L48.3398-50.293C48.3398-52.1973 47.0215-53.418 45.0684-53.418C43.1152-53.418 41.7969-52.1973 41.7969-50.293L41.7969-12.1582C41.7969-10.3027 43.1152-9.0332 45.0684-9.0332ZM56.2012-9.0332C58.1055-9.0332 59.375-10.3027 59.4727-12.207L60.5957-50.2441C60.6445-52.1484 59.375-53.418 57.4219-53.418C55.4688-53.418 54.1016-52.1973 54.1016-50.293L52.9785-12.2559C52.8809-10.3516 54.1992-9.0332 56.2012-9.0332Z"/>
  </g>
  <g id="Semibold-S" transform="matrix(1 0 0 1 1998.88 696)">
   <path d="M26.709 4.83398L62.1094 4.83398C68.5059 4.83398 72.4609 1.2207 72.8027-5.27344L75.2441-59.3262L78.8086-59.3262C81.1035-59.3262 82.9102-61.084 82.9102-63.4277C82.9102-65.7227 81.1035-67.4805 78.8086-67.4805L62.4023-67.4805L62.4023-72.9004C62.4023-79.1992 58.4473-82.8613 51.5625-82.8613L37.1582-82.8613C30.2734-82.8613 26.2695-79.1992 26.2695-72.9004L26.2695-67.4805L9.96094-67.4805C7.66602-67.4805 5.85938-65.7227 5.85938-63.4277C5.85938-61.084 7.66602-59.3262 9.96094-59.3262L13.5254-59.3262L15.9668-5.22461C16.3086 1.2207 20.2148 4.83398 26.709 4.83398ZM34.8145-72.5586C34.8145-74.2188 35.9863-75.293 37.793-75.293L50.8789-75.293C52.6855-75.293 53.8574-74.2188 53.8574-72.5586L53.8574-67.4805L34.8145-67.4805ZM27.7344-3.36914C25.7812-3.36914 24.4629-4.73633 24.3652-6.93359L21.9238-59.3262L66.748-59.3262L64.4043-6.93359C64.3066-4.73633 63.0371-3.36914 60.9863-3.36914ZM33.2031-8.88672C35.0586-8.88672 36.2793-10.0586 36.2305-11.8164L35.1074-50.5859C35.0586-52.3438 33.8379-53.5156 32.0312-53.5156C30.1758-53.5156 28.9551-52.3438 29.0527-50.5859L30.127-11.8164C30.2246-10.0098 31.4453-8.88672 33.2031-8.88672ZM44.3848-8.88672C46.2402-8.88672 47.4609-10.0586 47.4609-11.7676L47.4609-50.5859C47.4609-52.3438 46.2402-53.5156 44.3848-53.5156C42.5293-53.5156 41.3086-52.3438 41.3086-50.5859L41.3086-11.7676C41.3086-10.0586 42.5293-8.88672 44.3848-8.88672ZM55.5664-8.83789C57.3242-8.83789 58.5449-10.0098 58.6426-11.8164L59.7168-50.5859C59.7656-52.3438 58.5938-53.5156 56.7383-53.5156C54.9316-53.5156 53.7109-52.3438 53.6621-50.5859L52.5391-11.8164C52.4902-10.0586 53.7109-8.83789 55.5664-8.83789Z"/>
  </g>
  <g id="Medium-S" transform="matrix(1 0 0 1 1702.71 696)">
   <path d="M26.2207 4.49219L61.5723 4.49219C67.7246 4.49219 71.582 0.878906 71.875-5.32227L74.3652-59.668L78.125-59.668C80.2246-59.668 81.8359-61.3281 81.8359-63.4277C81.8359-65.4785 80.2246-67.1387 78.125-67.1387L61.4258-67.1387L61.4258-72.6562C61.4258-78.7109 57.5195-82.3242 50.9766-82.3242L36.6699-82.3242C30.0781-82.3242 26.2207-78.7109 26.2207-72.6562L26.2207-67.1387L9.57031-67.1387C7.51953-67.1387 5.85938-65.4785 5.85938-63.4277C5.85938-61.3281 7.51953-59.668 9.57031-59.668L13.3301-59.668L15.8691-5.27344C16.1621 0.927734 19.9707 4.49219 26.2207 4.49219ZM34.082-72.2168C34.082-74.0234 35.3516-75.2441 37.2559-75.2441L50.3906-75.2441C52.2949-75.2441 53.5645-74.0234 53.5645-72.2168L53.5645-67.1387L34.082-67.1387ZM27.0508-2.97852C25.0488-2.97852 23.6816-4.44336 23.5352-6.5918L21.0449-59.668L66.5039-59.668L64.1602-6.5918C64.0625-4.39453 62.6953-2.97852 60.5957-2.97852ZM32.6172-8.74023C34.4238-8.74023 35.5469-9.86328 35.498-11.5234L34.4238-50.8301C34.375-52.4902 33.2031-53.5645 31.4941-53.5645C29.7363-53.5645 28.5645-52.4414 28.6133-50.7812L29.7363-11.4746C29.7852-9.81445 30.957-8.74023 32.6172-8.74023ZM43.8477-8.74023C45.6055-8.74023 46.8262-9.81445 46.8262-11.4746L46.8262-50.8301C46.8262-52.4414 45.6055-53.5645 43.8477-53.5645C42.0898-53.5645 40.918-52.4414 40.918-50.8301L40.918-11.4746C40.918-9.81445 42.0898-8.74023 43.8477-8.74023ZM55.0781-8.74023C56.7871-8.74023 57.9102-9.81445 58.0078-11.4746L59.082-50.7812C59.1309-52.4414 58.0078-53.5645 56.25-53.5645C54.541-53.5645 53.3691-52.4902 53.3203-50.8301L52.1973-11.5234C52.1484-9.86328 53.3203-8.74023 55.0781-8.74023Z"/>
  </g>
  <g id="Regular-S" transform="matrix(1 0 0 1 1406.68 696)">
   <path d="M25.5371 4.05273L60.8398 4.05273C66.6504 4.05273 70.4102 0.439453 70.7031-5.41992L73.1934-60.1562L77.2461-60.1562C79.0527-60.1562 80.4688-61.6211 80.4688-63.4277C80.4688-65.2344 79.0527-66.6992 77.2461-66.6992L60.1562-66.6992L60.1562-72.3145C60.1562-78.0762 56.3965-81.6406 50.2441-81.6406L35.9863-81.6406C29.8828-81.6406 26.123-78.0762 26.123-72.3145L26.123-66.6992L9.08203-66.6992C7.37305-66.6992 5.85938-65.2344 5.85938-63.4277C5.85938-61.6211 7.37305-60.1562 9.08203-60.1562L13.1348-60.1562L15.6738-5.37109C15.9668 0.488281 19.6289 4.05273 25.5371 4.05273ZM33.0566-71.8262C33.0566-73.8281 34.4727-75.1465 36.5234-75.1465L49.7559-75.1465C51.8066-75.1465 53.1738-73.8281 53.1738-71.8262L53.1738-66.6992L33.0566-66.6992ZM26.1719-2.49023C24.1211-2.49023 22.6074-4.00391 22.5098-6.15234L19.9707-60.1562L66.2109-60.1562L63.8184-6.15234C63.7207-3.95508 62.2559-2.49023 60.1074-2.49023ZM31.8848-8.54492C33.5449-8.54492 34.6191-9.57031 34.5703-11.084L33.4473-51.123C33.4473-52.6855 32.3242-53.6621 30.7617-53.6621C29.1504-53.6621 28.0762-52.6367 28.0762-51.123L29.1992-11.084C29.248-9.52148 30.3223-8.54492 31.8848-8.54492ZM43.1641-8.54492C44.8242-8.54492 45.9473-9.57031 45.9473-11.084L45.9473-51.123C45.9473-52.6367 44.8242-53.6621 43.1641-53.6621C41.5527-53.6621 40.3809-52.6367 40.3809-51.123L40.3809-11.084C40.3809-9.57031 41.5527-8.54492 43.1641-8.54492ZM54.4922-8.54492C56.0059-8.54492 57.1289-9.52148 57.1777-11.084L58.252-51.123C58.3008-52.6367 57.2266-53.6621 55.5664-53.6621C54.0039-53.6621 52.9297-52.6367 52.8809-51.123L51.8066-11.084C51.7578-9.57031 52.832-8.54492 54.4922-8.54492Z"/>
  </g>
  <g id="Light-S" transform="matrix(1 0 0 1 1110.48 696)">
   <path d="M25.2441 3.85742L60.1074 3.85742C65.332 3.85742 68.8965 0.390625 69.1895-4.78516L71.9238-61.1328L76.9531-61.1328C78.3691-61.1328 79.4922-62.3047 79.4922-63.7207C79.4922-65.1367 78.3203-66.2598 76.9531-66.2598L59.1797-66.2598L59.1797-72.3145C59.1797-77.6367 55.7129-80.9082 50-80.9082L35.2539-80.9082C29.5898-80.9082 26.123-77.6367 26.123-72.3145L26.123-66.2598L8.39844-66.2598C7.03125-66.2598 5.85938-65.0879 5.85938-63.7207C5.85938-62.3047 7.03125-61.1328 8.39844-61.1328L13.4277-61.1328L16.1621-4.73633C16.4551 0.439453 20.0195 3.85742 25.2441 3.85742ZM31.4941-71.9727C31.4941-74.3164 33.1055-75.8301 35.5469-75.8301L49.707-75.8301C52.1973-75.8301 53.8086-74.3164 53.8086-71.9727L53.8086-66.2598L31.4941-66.2598ZM25.6836-1.2207C23.3887-1.2207 21.582-2.97852 21.4844-5.32227L18.75-61.1328L66.4551-61.1328L63.8184-5.32227C63.7207-2.97852 61.9629-1.2207 59.6191-1.2207ZM31.2988-8.20312C32.5684-8.20312 33.4473-9.0332 33.3984-10.2539L32.1777-51.8555C32.1777-53.0762 31.2988-53.8574 30.0781-53.8574C28.7598-53.8574 27.9297-53.0762 27.9297-51.8555L29.1504-10.2051C29.1992-8.98438 30.0293-8.20312 31.2988-8.20312ZM42.6758-8.20312C43.9941-8.20312 44.873-9.0332 44.873-10.2539L44.873-51.8555C44.873-53.0273 43.9941-53.8574 42.6758-53.8574C41.4062-53.8574 40.4785-53.0273 40.4785-51.8555L40.4785-10.2539C40.4785-9.0332 41.4062-8.20312 42.6758-8.20312ZM54.0527-8.20312C55.3223-8.20312 56.1523-8.98438 56.2012-10.2051L57.4219-51.8066C57.4219-53.0273 56.5918-53.8574 55.2734-53.8574C54.0527-53.8574 53.1738-53.0762 53.125-51.8555L51.9531-10.2051C51.9043-9.0332 52.7344-8.20312 54.0527-8.20312Z"/>
  </g>
  <g id="Thin-S" transform="matrix(1 0 0 1 814.43 696)">
   <path d="M24.8535 3.61328L59.1797 3.61328C63.5254 3.61328 66.9434 0.390625 67.1875-3.95508L70.166-62.5L76.5625-62.5C77.4902-62.5 78.125-63.1836 78.125-64.0625C78.125-64.9902 77.4414-65.6738 76.5625-65.6738L57.9102-65.6738L57.9102-72.2656C57.9102-77.0508 54.834-79.8828 49.6582-79.8828L34.2773-79.8828C29.1504-79.8828 26.0742-77.0508 26.0742-72.2656L26.0742-65.6738L7.42188-65.6738C6.5918-65.6738 5.81055-64.9414 5.81055-64.0625C5.81055-63.1836 6.5918-62.5 7.42188-62.5L13.8672-62.5L16.8457-3.95508C17.0898 0.390625 20.459 3.61328 24.8535 3.61328ZM29.3457-72.168C29.3457-75 31.25-76.709 34.3262-76.709L49.6094-76.709C52.7344-76.709 54.6387-75 54.6387-72.168L54.6387-65.6738L29.3457-65.6738ZM25.0488 0.439453C22.4121 0.439453 20.2637-1.66016 20.1172-4.24805L17.1387-62.5L66.7969-62.5L63.8672-4.24805C63.7207-1.61133 61.5723 0.439453 58.9355 0.439453ZM30.4688-7.76367C31.3477-7.76367 31.8848-8.34961 31.8848-9.13086L30.5176-52.8809C30.5176-53.6621 29.8828-54.1504 29.1016-54.1504C28.2715-54.1504 27.7344-53.6133 27.7344-52.7832L29.1016-9.08203C29.1016-8.30078 29.6387-7.76367 30.4688-7.76367ZM42.041-7.76367C42.8711-7.76367 43.457-8.30078 43.457-9.13086L43.457-52.7832C43.457-53.6133 42.8711-54.1504 42.041-54.1504C41.2109-54.1504 40.625-53.6133 40.625-52.7832L40.625-9.13086C40.625-8.30078 41.2109-7.76367 42.041-7.76367ZM53.5156-7.71484C54.3457-7.71484 54.8828-8.25195 54.9316-9.0332L56.2988-52.7832C56.2988-53.6133 55.7129-54.1016 54.8828-54.1016C54.1016-54.1016 53.5156-53.6133 53.5156-52.832L52.1484-9.08203C52.0996-8.30078 52.6367-7.71484 53.5156-7.71484Z"/>
  </g>
  <g id="Ultralight-S" transform="matrix(1 0 0 1 518.085 696)">
   <path d="M24.6582 3.51562L58.6426 3.51562C62.5977 3.51562 65.9668 0.341797 66.1621-3.51562L69.2871-63.1836L76.3672-63.1836C77.002-63.1836 77.4414-63.6719 77.4414-64.2578C77.4414-64.8926 76.9531-65.332 76.3672-65.332L57.2266-65.332L57.2266-72.2656C57.2266-76.709 54.3457-79.3457 49.5117-79.3457L33.7402-79.3457C28.9551-79.3457 26.0742-76.709 26.0742-72.2656L26.0742-65.332L6.93359-65.332C6.34766-65.332 5.81055-64.8438 5.81055-64.2578C5.81055-63.623 6.34766-63.1836 6.93359-63.1836L14.0625-63.1836L17.1875-3.51562C17.3828 0.341797 20.7031 3.51562 24.6582 3.51562ZM28.2715-72.2656C28.2715-75.3418 30.2734-77.1973 33.6914-77.1973L49.5605-77.1973C53.0273-77.1973 55.0293-75.3418 55.0293-72.2656L55.0293-65.332L28.2715-65.332ZM24.707 1.31836C21.875 1.31836 19.5312-0.927734 19.3848-3.71094L16.3086-63.1836L66.9434-63.1836L63.8672-3.71094C63.7207-0.927734 61.377 1.31836 58.5938 1.31836ZM30.0781-7.51953C30.7129-7.51953 31.1035-8.00781 31.1035-8.54492L29.6387-53.418C29.6387-53.9551 29.1504-54.2969 28.6133-54.2969C28.0273-54.2969 27.5879-53.9551 27.6367-53.3203L29.0527-8.49609C29.0527-7.95898 29.4434-7.51953 30.0781-7.51953ZM41.6992-7.51953C42.2852-7.51953 42.6758-7.95898 42.6758-8.54492L42.6758-53.3203C42.6758-53.9062 42.2852-54.2969 41.6992-54.2969C41.0645-54.2969 40.6738-53.9062 40.6738-53.3203L40.6738-8.54492C40.6738-7.95898 41.0645-7.51953 41.6992-7.51953ZM53.2227-7.4707C53.8574-7.4707 54.248-7.91016 54.248-8.44727L55.7129-53.2715C55.7129-53.9062 55.2734-54.248 54.6875-54.248C54.1504-54.248 53.6621-53.9062 53.6621-53.3691L52.2461-8.49609C52.2461-7.95898 52.5879-7.4707 53.2227-7.4707Z"/>
  </g>
 </g>
</svg>
